<svg width="279" height="38" viewBox="0 0 279 38" fill="none" xmlns="http://www.w3.org/2000/svg">
<path d="M21.35 19C23.3833 19.4333 25.0167 20.45 26.25 22.05C27.4833 23.6167 28.1 25.4167 28.1 27.45C28.1 30.3833 27.0667 32.7167 25 34.45C22.9667 36.15 20.1167 37 16.45 37H0.1V1.9H15.9C19.4667 1.9 22.25 2.71666 24.25 4.35C26.2833 5.98333 27.3 8.2 27.3 11C27.3 13.0667 26.75 14.7833 25.65 16.15C24.5833 17.5167 23.15 18.4667 21.35 19ZM8.65 16.1H14.25C15.65 16.1 16.7167 15.8 17.45 15.2C18.2167 14.5667 18.6 13.65 18.6 12.45C18.6 11.25 18.2167 10.3333 17.45 9.7C16.7167 9.06667 15.65 8.75 14.25 8.75H8.65V16.1ZM14.95 30.1C16.3833 30.1 17.4833 29.7833 18.25 29.15C19.05 28.4833 19.45 27.5333 19.45 26.3C19.45 25.0667 19.0333 24.1 18.2 23.4C17.4 22.7 16.2833 22.35 14.85 22.35H8.65V30.1H14.95ZM45.759 37.4C43.0257 37.4 40.559 36.8167 38.359 35.65C36.1923 34.4833 34.4757 32.8167 33.209 30.65C31.9757 28.4833 31.359 25.95 31.359 23.05C31.359 20.1833 31.9923 17.6667 33.259 15.5C34.5257 13.3 36.259 11.6167 38.459 10.45C40.659 9.28333 43.1257 8.7 45.859 8.7C48.5923 8.7 51.059 9.28333 53.259 10.45C55.459 11.6167 57.1923 13.3 58.459 15.5C59.7257 17.6667 60.359 20.1833 60.359 23.05C60.359 25.9167 59.709 28.45 58.409 30.65C57.1423 32.8167 55.3923 34.4833 53.159 35.65C50.959 36.8167 48.4923 37.4 45.759 37.4ZM45.759 30C47.3923 30 48.7757 29.4 49.909 28.2C51.0757 27 51.659 25.2833 51.659 23.05C51.659 20.8167 51.0923 19.1 49.959 17.9C48.859 16.7 47.4923 16.1 45.859 16.1C44.1923 16.1 42.809 16.7 41.709 17.9C40.609 19.0667 40.059 20.7833 40.059 23.05C40.059 25.2833 40.5923 27 41.659 28.2C42.759 29.4 44.1257 30 45.759 30ZM77.5949 37.4C74.8616 37.4 72.3949 36.8167 70.1949 35.65C68.0283 34.4833 66.3116 32.8167 65.0449 30.65C63.8116 28.4833 63.1949 25.95 63.1949 23.05C63.1949 20.1833 63.8283 17.6667 65.0949 15.5C66.3616 13.3 68.0949 11.6167 70.2949 10.45C72.4949 9.28333 74.9616 8.7 77.6949 8.7C80.4283 8.7 82.8949 9.28333 85.0949 10.45C87.2949 11.6167 89.0283 13.3 90.2949 15.5C91.5616 17.6667 92.1949 20.1833 92.1949 23.05C92.1949 25.9167 91.5449 28.45 90.2449 30.65C88.9783 32.8167 87.2283 34.4833 84.9949 35.65C82.7949 36.8167 80.3283 37.4 77.5949 37.4ZM77.5949 30C79.2283 30 80.6116 29.4 81.7449 28.2C82.9116 27 83.4949 25.2833 83.4949 23.05C83.4949 20.8167 82.9283 19.1 81.7949 17.9C80.6949 16.7 79.3283 16.1 77.6949 16.1C76.0283 16.1 74.6449 16.7 73.5449 17.9C72.4449 19.0667 71.8949 20.7833 71.8949 23.05C71.8949 25.2833 72.4283 27 73.4949 28.2C74.5949 29.4 75.9616 30 77.5949 30ZM113.781 37L105.281 25.3V37H96.7309V-4.76837e-07H105.281V20.45L113.731 9.1H124.281L112.681 23.1L124.381 37H113.781ZM136.535 23C136.535 20.1333 137.068 17.6167 138.135 15.45C139.235 13.2833 140.718 11.6167 142.585 10.45C144.451 9.28333 146.535 8.7 148.835 8.7C150.801 8.7 152.518 9.1 153.985 9.9C155.485 10.7 156.635 11.75 157.435 13.05V9.1H165.985V37H157.435V33.05C156.601 34.35 155.435 35.4 153.935 36.2C152.468 37 150.751 37.4 148.785 37.4C146.518 37.4 144.451 36.8167 142.585 35.65C140.718 34.45 139.235 32.7667 138.135 30.6C137.068 28.4 136.535 25.8667 136.535 23ZM157.435 23.05C157.435 20.9167 156.835 19.2333 155.635 18C154.468 16.7667 153.035 16.15 151.335 16.15C149.635 16.15 148.185 16.7667 146.985 18C145.818 19.2 145.235 20.8667 145.235 23C145.235 25.1333 145.818 26.8333 146.985 28.1C148.185 29.3333 149.635 29.95 151.335 29.95C153.035 29.95 154.468 29.3333 155.635 28.1C156.835 26.8667 157.435 25.1833 157.435 23.05ZM181.316 19.4C181.316 15.9333 182.066 12.85 183.566 10.15C185.066 7.41667 187.149 5.3 189.816 3.8C192.516 2.26666 195.566 1.5 198.966 1.5C203.133 1.5 206.699 2.6 209.666 4.8C212.633 7 214.616 10 215.616 13.8H206.216C205.516 12.3333 204.516 11.2167 203.216 10.45C201.949 9.68333 200.499 9.3 198.866 9.3C196.233 9.3 194.099 10.2167 192.466 12.05C190.833 13.8833 190.016 16.3333 190.016 19.4C190.016 22.4667 190.833 24.9167 192.466 26.75C194.099 28.5833 196.233 29.5 198.866 29.5C200.499 29.5 201.949 29.1167 203.216 28.35C204.516 27.5833 205.516 26.4667 206.216 25H215.616C214.616 28.8 212.633 31.8 209.666 34C206.699 36.1667 203.133 37.25 198.966 37.25C195.566 37.25 192.516 36.5 189.816 35C187.149 33.4667 185.066 31.35 183.566 28.65C182.066 25.95 181.316 22.8667 181.316 19.4ZM219.152 23C219.152 20.1333 219.685 17.6167 220.752 15.45C221.852 13.2833 223.335 11.6167 225.202 10.45C227.069 9.28333 229.152 8.7 231.452 8.7C233.419 8.7 235.135 9.1 236.602 9.9C238.102 10.7 239.252 11.75 240.052 13.05V9.1H248.602V37H240.052V33.05C239.219 34.35 238.052 35.4 236.552 36.2C235.085 37 233.369 37.4 231.402 37.4C229.135 37.4 227.069 36.8167 225.202 35.65C223.335 34.45 221.852 32.7667 220.752 30.6C219.685 28.4 219.152 25.8667 219.152 23ZM240.052 23.05C240.052 20.9167 239.452 19.2333 238.252 18C237.085 16.7667 235.652 16.15 233.952 16.15C232.252 16.15 230.802 16.7667 229.602 18C228.435 19.2 227.852 20.8667 227.852 23C227.852 25.1333 228.435 26.8333 229.602 28.1C230.802 29.3333 232.252 29.95 233.952 29.95C235.652 29.95 237.085 29.3333 238.252 28.1C239.452 26.8667 240.052 25.1833 240.052 23.05ZM263.338 -4.76837e-07V37H254.788V-4.76837e-07H263.338ZM278.084 -4.76837e-07V37H269.534V-4.76837e-07H278.084Z" fill="white"/>
</svg>
