<svg width="783" height="783" viewBox="0 0 783 783" fill="none" xmlns="http://www.w3.org/2000/svg">
<path d="M535.815 171.931C550.692 163.654 573.876 180.544 584.126 190.026C596.106 201.051 605.768 215.082 613.199 229.528C646.938 295.112 664.673 373.138 636.947 444.203C627.61 468.262 613.042 489.944 594.297 507.681C583.758 517.602 562.069 526.959 558.905 542.133C558.227 545.901 558.496 549.778 559.688 553.416C563.877 567.322 576.523 576.961 586.185 587.085C632.578 635.796 599.034 711.308 549.431 743.85" stroke="#CCDDE2" stroke-width="4.72" stroke-miterlimit="10"/>
<path d="M172.002 427.66C186.487 412.274 204.997 401.876 223.609 392.307C243.764 381.948 263.597 371.519 281.919 358.067C293.074 349.895 303.627 340.932 313.498 331.249" stroke="#CCDDE2" stroke-width="4.72" stroke-miterlimit="10"/>
<path d="M148.488 622.54C129.978 574.722 125.28 519.912 144.589 472.149" stroke="#CCDDE2" stroke-width="4.72" stroke-miterlimit="10"/>
<path d="M391.038 128.225V76.9692C391.038 73.4389 389.636 70.0532 387.139 67.5569C384.643 65.0606 381.258 63.6582 377.727 63.6582H207.996C204.466 63.6582 201.08 65.0606 198.584 67.5569C196.087 70.0532 194.685 73.4389 194.685 76.9692V317.992C194.7 321.513 196.109 324.884 198.603 327.369C201.098 329.853 204.476 331.249 207.996 331.249H377.751C379.399 331.261 381.033 330.947 382.558 330.325" stroke="black" stroke-width="4.72" stroke-linecap="round" stroke-linejoin="round"/>
<path d="M372.34 71.8003H213.415C206.378 71.8003 200.675 77.504 200.675 84.5395V310.412C200.675 317.448 206.378 323.151 213.415 323.151H372.34C379.376 323.151 385.079 317.448 385.079 310.412V84.5395C385.079 77.504 379.376 71.8003 372.34 71.8003Z" fill="#B155FE"/>
<path d="M369.866 91.25H217.901C214.381 91.25 211.527 94.1033 211.527 97.6236V131.935C211.527 135.455 214.381 138.308 217.901 138.308H369.866C373.386 138.308 376.239 135.455 376.239 131.935V97.6236C376.239 94.1033 373.386 91.25 369.866 91.25Z" fill="#B155FE"/>
<path d="M292.873 111.078C295.563 111.078 297.744 108.897 297.744 106.208C297.744 103.518 295.563 101.337 292.873 101.337C290.184 101.337 288.003 103.518 288.003 106.208C288.003 108.897 290.184 111.078 292.873 111.078Z" fill="#50078C"/>
<path d="M279.273 128.225C279.273 124.617 280.706 121.158 283.256 118.607C285.807 116.057 289.266 114.624 292.873 114.624C296.481 114.624 299.94 116.057 302.49 118.607C305.041 121.158 306.474 124.617 306.474 128.225H279.273Z" fill="#50078C"/>
<path d="M293.868 188.743C288.679 188.74 283.605 190.276 279.289 193.156C274.973 196.038 271.609 200.134 269.621 204.928C267.634 209.722 267.113 214.997 268.125 220.086C269.137 225.176 271.635 229.852 275.304 233.521C278.974 237.19 283.649 239.689 288.738 240.7C293.829 241.712 299.104 241.191 303.897 239.204C308.691 237.217 312.787 233.852 315.669 229.536C318.549 225.22 320.086 220.146 320.083 214.958C320.08 208.005 317.318 201.339 312.402 196.423C307.486 191.507 300.82 188.744 293.868 188.743ZM293.868 234.846C292.852 234.846 291.878 234.442 291.16 233.724C290.442 233.006 290.039 232.032 290.039 231.017C290.039 230.001 290.442 229.027 291.16 228.309C291.878 227.591 292.852 227.188 293.868 227.188C294.883 227.188 295.857 227.591 296.575 228.309C297.293 229.027 297.697 230.001 297.697 231.017C297.697 232.032 297.293 233.006 296.575 233.724C295.857 234.442 294.883 234.846 293.868 234.846ZM298.722 205.366C297.9 211.05 297.203 217.04 295.536 222.592C295.128 223.907 292.631 223.907 292.223 222.592C291.025 218.434 290.105 214.202 289.467 209.923C288.958 206.791 287.118 201.78 288.88 198.742C290.399 196.048 294.713 195.711 297.203 197.121C300.288 198.883 299.106 202.539 298.722 205.366Z" fill="#EB3223"/>
<path d="M293.868 234.843C295.983 234.843 297.697 233.129 297.697 231.014C297.697 228.9 295.983 227.186 293.868 227.186C291.753 227.186 290.039 228.9 290.039 231.014C290.039 233.129 291.753 234.843 293.868 234.843Z" fill="white"/>
<path d="M298.722 205.365C297.9 211.05 297.203 217.04 295.536 222.591C295.128 223.906 292.631 223.906 292.223 222.591C291.025 218.434 290.105 214.202 289.467 209.922C288.958 206.79 287.118 201.779 288.88 198.741C290.399 196.047 294.713 195.711 297.203 197.12C300.288 198.882 299.106 202.538 298.722 205.365Z" fill="white"/>
<path d="M228.002 159.325H356.069" stroke="white" stroke-width="4.72" stroke-miterlimit="10" stroke-linecap="round"/>
<path d="M228.002 171.923H356.069" stroke="white" stroke-width="4.72" stroke-miterlimit="10" stroke-linecap="round"/>
<path d="M228.002 253.104H356.069" stroke="white" stroke-width="4.72" stroke-miterlimit="10" stroke-linecap="round"/>
<path d="M387.248 285.593C387.734 285.969 388.579 127.662 388.579 127.662L340.401 109.042C340.401 109.042 304.587 196.824 306.756 197.709L316.426 201.624C316.426 201.624 318.814 199.737 324.35 213.369C329.886 227.001 369.787 272.164 387.248 285.593Z" fill="white"/>
<path d="M257.748 265.03H326.323" stroke="white" stroke-width="4.72" stroke-miterlimit="10" stroke-linecap="round"/>
<path d="M580.031 356.821C579.404 363.648 570.979 441.964 579.146 457.256C582.106 462.792 552.728 457.491 550.958 457.084C524.336 450.82 499.405 439.271 476.072 425.224C452.738 411.176 432.122 392.69 407.794 380.232C403.3 377.93 393.348 372.888 396.292 366.287C401.303 355.043 407.458 339.524 407.943 325.798L407.794 307.789C407.794 307.789 404.239 296.483 415.836 306.388C427.432 316.293 480.496 342.406 514.846 312.15C549.196 281.895 551.232 257.967 551.232 257.967C551.232 257.967 529.238 204.143 466.621 237.069L488.741 179.91C488.741 179.91 485.711 176.065 495.295 176.778C504.878 177.49 522.653 172.753 524.853 155.19C524.853 155.19 525.025 149.459 535.165 160.295C545.305 171.132 593.224 213.453 580.031 356.821Z" fill="#2E2E2E"/>
<path d="M456.927 154.07C462.3 150.13 468.317 147.154 474.709 145.277" stroke="black" stroke-width="4.72" stroke-miterlimit="10"/>
<path d="M433.124 421.309L390.059 577L350.909 718.582L325.979 720.931C320.263 721.458 314.95 724.1 311.08 728.339C307.21 732.578 305.062 738.11 305.057 743.85H382.159L438.002 647.603L479.541 575.998L544.483 464.029C546.362 460.764 548.186 457.499 549.964 454.163C549.993 454.125 550.01 454.079 550.011 454.03" stroke="black" stroke-width="4.72" stroke-miterlimit="10"/>
<path d="M578.433 368.794C579.021 364.989 579.537 361.184 579.999 357.355C579.999 357.175 579.999 357.018 580.046 356.838C582.682 333.65 583.243 310.274 581.722 286.987C581.732 286.919 581.732 286.85 581.722 286.783C579.999 261.437 575.348 234.815 566.062 208.859C563.365 201.373 560.031 194.131 556.094 187.217C555.805 186.645 555.476 186.081 555.116 185.518C553.879 183.357 552.547 181.25 551.201 179.168C549.376 176.419 547.442 173.749 545.414 171.204C542.39 167.34 539.037 163.746 535.392 160.462C535.368 160.453 535.347 160.44 535.329 160.423C535.311 160.404 535.298 160.383 535.29 160.36C532.582 157.962 529.703 155.764 526.677 153.783C526.113 153.399 525.55 153.039 524.978 152.679C524.89 152.611 524.795 152.55 524.696 152.499" stroke="black" stroke-width="4.72" stroke-miterlimit="10"/>
<path d="M479.541 575.998L540.098 743.849H452.715C452.715 738.396 454.694 733.128 458.286 729.025C461.878 724.922 466.838 722.263 472.243 721.542L491.262 718.997C491.262 718.997 465.689 685.328 438.018 647.595" stroke="black" stroke-width="4.72" stroke-miterlimit="10"/>
<path d="M490.283 175.939L464.037 243.716C463.245 245.762 462.053 247.63 460.532 249.211C459.01 250.793 457.189 252.055 455.175 252.925C453.161 253.797 450.994 254.258 448.8 254.283C446.606 254.308 444.428 253.897 442.395 253.073L380.225 227.907C380.194 227.823 380.168 227.736 380.147 227.649C379.364 224.517 371.33 194.496 361.589 194.496C354.112 194.496 357.674 209.303 360.806 217.681C361.167 218.582 361.503 219.427 361.809 220.148L361.323 219.944L312.644 200.103L343.346 119.172L403.284 142.325L490.283 175.939Z" fill="#D7E8F0"/>
<path d="M361.793 220.15C358.528 212.672 353.329 194.499 361.597 194.499C371.338 194.499 379.364 224.542 380.154 227.651L380.233 227.909L442.395 253.083C444.432 253.906 446.611 254.315 448.809 254.288C451.005 254.26 453.174 253.795 455.189 252.921C457.204 252.046 459.025 250.779 460.545 249.194C462.066 247.609 463.256 245.737 464.045 243.687L493.29 168.127L400.332 132.195L340.401 109.042L306.732 197.709L361.793 220.15Z" stroke="black" stroke-width="4.72" stroke-miterlimit="10"/>
<path d="M554.481 218.246C556.345 250.74 549.087 292.31 507.658 316.778C446.373 353.016 365.262 270.918 335.234 231.079C330.272 224.536 326.081 217.442 322.745 209.938C321.733 207.754 320.885 205.498 320.208 203.188" stroke="black" stroke-width="4.72" stroke-miterlimit="10"/>
<path d="M407.254 300.773C407.254 300.773 411.952 334.998 397.467 364.094L397.529 364.016C397.529 364.016 397.529 364.071 397.482 364.094C375.245 405.805 343.408 472.344 361.167 520.694C367.204 537.137 377.61 556.712 390.051 577.008" stroke="black" stroke-width="4.72" stroke-miterlimit="10"/>
<path d="M515.081 102.44L515.128 102.66C515.505 107.244 514.045 111.79 511.07 115.298C508.095 118.806 503.848 120.989 499.264 121.366C496.33 121.62 493.38 121.105 490.706 119.87C489.94 119.545 489.204 119.155 488.506 118.703C488.22 118.505 487.987 118.239 487.825 117.931C487.664 117.621 487.58 117.278 487.58 116.93C487.58 116.581 487.664 116.239 487.825 115.93C487.987 115.621 488.22 115.355 488.506 115.156C491.873 112.729 494.95 109.347 495.827 105.385C496.09 104.166 496.112 102.908 495.89 101.681C495.65 100.117 495.005 98.6445 494.018 97.4082C493.032 96.1718 491.739 95.215 490.268 94.634C489.807 94.4977 489.33 94.421 488.85 94.4069C487.496 94.2973 485.718 94.4696 485.366 95.4718C487.095 90.6133 487.166 85.3186 485.57 80.4147C484.577 77.3807 482.903 74.6141 480.676 72.3265C480.777 73.2128 480.682 74.1105 480.396 74.9557C480.111 75.801 479.643 76.5729 479.026 77.2166C478.408 77.8604 477.657 78.3601 476.823 78.6804C475.991 78.9998 475.098 79.1322 474.208 79.068C467.31 78.8331 466.01 72.2559 466.01 72.2559C466.01 72.2559 466.01 72.3343 466.01 72.3813C463.004 79.8744 454.265 80.078 448.001 76.7504C445.78 75.6106 443.829 74.0088 442.278 72.0524C440.5 64.3711 446.835 56.9484 454.14 55.8835C454.297 50.9976 457.859 45.767 462.667 45.3677C464.342 45.2246 466.024 45.5334 467.539 46.2619C469.055 46.9905 470.346 48.112 471.28 49.5098C471.413 49.7212 471.562 49.9483 471.679 50.1832C473.645 47.333 476.863 44.2089 480.292 43.9192C482.671 43.7522 485.043 44.3207 487.089 45.5476C489.134 46.7746 490.752 48.6006 491.724 50.7782C491.724 50.4415 494.739 49.0635 495.044 48.9382C497.86 47.8678 500.951 47.7647 503.832 48.645C506.712 49.5254 509.219 51.3392 510.954 53.8006C511.129 54.4811 511.244 55.1753 511.299 55.8756C511.471 57.9698 511.149 60.0751 510.359 62.0221C511.472 62.3395 512.512 62.8714 513.421 63.5881C515.388 65.0282 516.708 67.1863 517.093 69.5937C517.132 69.8365 517.156 70.0792 517.172 70.3219C517.328 72.1566 516.936 73.9964 516.044 75.6072C518.359 76.2686 520.462 77.5231 522.145 79.2465C523.827 80.9699 525.03 83.1028 525.636 85.4337C525.827 86.205 525.955 86.9911 526.019 87.7827C526.286 91.1379 525.324 94.475 523.311 97.1725C521.299 99.8691 518.373 101.742 515.081 102.44Z" fill="#B155FE"/>
<path d="M515.081 102.439L515.128 102.658C515.505 107.243 514.045 111.789 511.07 115.297C508.095 118.805 503.849 120.988 499.264 121.364C496.33 121.619 493.38 121.103 490.706 119.869C494.073 117.441 497.15 114.051 498.019 110.089C498.328 108.616 498.294 107.092 497.921 105.634C497.547 104.176 496.845 102.823 495.866 101.68C495.626 100.117 494.981 98.6431 493.995 97.4067C493.008 96.1703 491.715 95.2135 490.244 94.6325C489.784 94.4963 489.307 94.4196 488.827 94.4055C489.291 89.5086 488.139 84.5937 485.546 80.4133C484.553 77.3794 482.879 74.6127 480.652 72.3251C480.753 73.2114 480.659 74.1092 480.373 74.9544C480.088 75.7997 479.62 76.5716 479.003 77.2153C478.385 77.8591 477.633 78.3587 476.8 78.6789C475.968 78.9984 475.074 79.1315 474.185 79.0665C467.287 78.8316 465.987 72.2546 465.987 72.2546C465.987 72.2546 465.987 72.3329 465.987 72.3799C462.98 79.873 454.242 80.0766 447.978 76.7491C445.756 75.6092 443.805 74.0074 442.254 72.0511C440.477 64.3698 446.811 56.947 454.116 55.8821C454.273 50.9962 457.836 45.7657 462.643 45.3664C464.318 45.2233 466.001 45.532 467.516 46.2606C469.031 46.9891 470.322 48.1108 471.256 49.5085C471.389 49.7199 471.538 49.947 471.656 50.1819C473.621 47.3317 476.839 44.2076 480.269 43.9179C482.651 43.7459 485.029 44.312 487.079 45.5393C489.128 46.7666 490.751 48.5953 491.724 50.7769C491.724 50.4403 494.739 49.0622 495.044 48.9369C497.86 47.8665 500.951 47.7633 503.832 48.6437C506.712 49.5241 509.219 51.3379 510.954 53.7993C511.129 54.4797 511.244 55.174 511.299 55.8743C511.471 57.9684 511.149 60.0738 510.359 62.0208C511.472 62.3382 512.513 62.8701 513.421 63.5868C513.278 64.6625 512.996 65.7151 512.583 66.7188C514.32 67.2274 515.882 68.2087 517.093 69.5533C517.132 69.796 517.156 70.0387 517.172 70.2815C517.328 72.1161 516.936 73.9559 516.044 75.5667C517.209 75.8991 518.326 76.3835 519.364 77.0074C519.195 78.1522 518.824 79.2575 518.268 80.2723C521.228 81.1054 523.823 82.9087 525.636 85.3931C525.827 86.1644 525.955 86.9505 526.019 87.7421C526.297 91.1036 525.339 94.4509 523.325 97.1561C521.311 99.8614 518.38 101.74 515.081 102.439Z" fill="#B155FE"/>
<path d="M454.234 86.7476C454.234 86.7476 464.162 86.8885 466.441 95.2666" stroke="black" stroke-width="4.72" stroke-miterlimit="10"/>
<path d="M451.674 111.853C449.415 112.41 447.07 112.525 444.768 112.19C444.335 112.115 443.927 111.938 443.577 111.671C443.229 111.404 442.949 111.057 442.764 110.66C442.579 110.262 442.492 109.825 442.512 109.387C442.533 108.948 442.659 108.521 442.88 108.142C444.948 104.642 447.077 101.181 449.395 97.8529C449.758 97.4293 449.982 96.9047 450.037 96.3496C450.037 96.3496 449.082 85.9905 451.172 78.043" stroke="black" stroke-width="4.72" stroke-miterlimit="10"/>
<path d="M459.486 95.5644C459.696 93.8951 458.715 92.3972 457.296 92.2187C455.875 92.0401 454.553 93.2483 454.344 94.9169C454.134 96.5862 455.115 98.0841 456.535 98.2626C457.955 98.4412 459.277 97.233 459.486 95.5644Z" fill="black"/>
<path d="M506.397 119.166C506.609 121.24 515.919 135.609 524.336 151.472C524.332 151.498 524.332 151.525 524.336 151.55C524.493 151.887 524.649 152.247 524.829 152.607" stroke="black" stroke-width="4.72" stroke-linecap="round" stroke-linejoin="round"/>
<path d="M472.815 134.355L475.743 155.198" stroke="black" stroke-width="4.72" stroke-miterlimit="10"/>
<path d="M448.087 112.376C448.087 112.376 452.331 133.016 462.769 136.14C473.206 139.264 482.265 126.243 482.265 126.243" stroke="black" stroke-width="4.72" stroke-linecap="round" stroke-linejoin="round"/>
<path d="M450.938 121.686C452.324 122.496 453.891 122.948 455.496 123C457.101 123.052 458.694 122.702 460.13 121.984" stroke="black" stroke-width="4.72" stroke-linecap="round" stroke-linejoin="round"/>
<path d="M470.536 49.2426C470.411 47.6415 469.872 46.1005 468.97 44.7716C467.823 43.0108 466.118 41.6854 464.129 41.0074C462.14 40.3294 459.981 40.3377 457.997 41.0312C456.014 41.7246 454.319 43.063 453.186 44.8327C452.052 46.6023 451.544 48.7008 451.744 50.7929" stroke="black" stroke-width="4.72" stroke-miterlimit="10" stroke-linecap="round"/>
<path d="M466.496 63.495C466.298 61.2332 465.554 59.0533 464.326 57.1436C463.098 55.2338 461.425 53.6514 459.449 52.5331C449.497 46.9659 436.742 57.7791 440.304 68.4906C441.557 72.2177 444.54 74.9268 447.939 76.7277C454.203 80.0556 462.972 79.8598 465.948 72.3586L465.995 72.2412C465.995 72.2412 467.294 78.8106 474.193 79.0533C475.084 79.116 475.977 78.9821 476.81 78.6618C477.643 78.3408 478.397 77.8405 479.015 77.1966C479.634 76.5527 480.103 75.7806 480.39 74.9351C480.677 74.0895 480.775 73.1913 480.676 72.3038C486.611 78.4113 488.161 87.5411 485.374 95.4572C485.883 94.0321 489.289 94.2905 490.275 94.6194C494.519 96.0992 496.782 101.118 495.843 105.378C494.958 109.363 491.881 112.73 488.529 115.173C488.244 115.371 488.01 115.636 487.849 115.944C487.688 116.252 487.603 116.595 487.603 116.943C487.603 117.29 487.688 117.633 487.849 117.941C488.01 118.25 488.244 118.514 488.529 118.712C491.72 120.763 495.501 121.699 499.28 121.374C503.863 120.997 508.108 118.816 511.083 115.309C514.057 111.803 515.519 107.259 515.143 102.676L515.097 102.457C518.121 101.824 520.848 100.196 522.84 97.8328C524.832 95.4697 525.975 92.5076 526.088 89.4195C526.199 86.3313 525.276 83.2933 523.461 80.7916C521.646 78.2901 519.046 76.4679 516.075 75.6159C516.967 74.005 517.359 72.1652 517.203 70.3306C516.987 67.8417 515.797 65.5391 513.889 63.9255C511.982 62.3118 509.514 61.518 507.024 61.7176" stroke="black" stroke-width="4.72" stroke-linecap="round" stroke-linejoin="round"/>
<path d="M470.137 44.3953C472.016 41.2633 474.091 39.5094 477.967 39.1883C480.371 38.9919 482.777 39.552 484.848 40.7902C486.92 42.0284 488.551 43.883 489.516 46.0944C489.383 45.789 492.53 44.3561 492.852 44.2309C494.107 43.751 495.426 43.4608 496.767 43.3696C500.342 43.1772 503.853 44.3729 506.568 46.7071C509.284 49.0414 510.992 52.3338 511.338 55.8976C511.51 57.9917 511.189 60.097 510.399 62.0441" stroke="black" stroke-width="4.72" stroke-linecap="square" stroke-linejoin="round"/>
<path d="M524.336 151.48C524.336 151.48 531.649 175.8 489.837 177.115" stroke="black" stroke-width="4.72" stroke-miterlimit="10"/>
<path d="M306.936 395.139C306.866 377.357 324.342 372.573 332.712 372.73C384.586 373.716 392.408 289.826 392.408 289.826" stroke="black" stroke-width="4.72" stroke-linecap="round" stroke-linejoin="round"/>
<path d="M578.433 368.793C578.433 368.793 572.31 429.194 578.433 449.52C584.556 469.847 549.345 453.897 549.345 453.897" stroke="black" stroke-width="4.72" stroke-miterlimit="10"/>
<path d="M227.626 414.317H186.918" stroke="black" stroke-width="4.72" stroke-linecap="round" stroke-linejoin="round"/>
<path d="M373.483 414.317H295.59" stroke="black" stroke-width="4.72" stroke-linecap="round" stroke-linejoin="round"/>
<path d="M284.417 414.317H238.431" stroke="black" stroke-width="4.72" stroke-linecap="round" stroke-linejoin="round"/>
<path d="M283.235 395.139H237.766" stroke="black" stroke-width="4.72" stroke-linecap="round" stroke-linejoin="round"/>
<path d="M319.464 395.139H294.917" stroke="black" stroke-width="4.72" stroke-linecap="round" stroke-linejoin="round"/>
<path d="M381.861 395.139H334.451" stroke="black" stroke-width="4.72" stroke-linecap="round" stroke-linejoin="round"/>
<path d="M226.404 395.139H218.363" stroke="black" stroke-width="4.72" stroke-linecap="round" stroke-linejoin="round"/>
<path d="M281.731 393.417H292.247C292.247 393.417 304.297 404.794 292.247 417.816V426.914H281.731" stroke="black" stroke-width="4.72" stroke-linecap="round" stroke-linejoin="round"/>
<path d="M235.425 393.417C235.425 393.417 247.475 404.794 235.425 417.816V426.914" stroke="black" stroke-width="4.72" stroke-linecap="round" stroke-linejoin="round"/>
<path d="M235.425 426.914H224.909V417.816C236.967 404.794 224.909 393.417 224.909 393.417H235.425" stroke="black" stroke-width="4.72" stroke-linecap="round" stroke-linejoin="round"/>
<path d="M281.731 393.417C281.731 393.417 293.789 404.794 281.731 417.816V426.914" stroke="black" stroke-width="4.72" stroke-linecap="round" stroke-linejoin="round"/>
<path d="M224.909 417.816H235.425" stroke="black" stroke-width="4.72" stroke-linecap="round" stroke-linejoin="round"/>
<path d="M281.731 417.816H292.247" stroke="black" stroke-width="4.72" stroke-linecap="round" stroke-linejoin="round"/>
<path d="M322.267 389.331C320.925 391.043 319.968 393.025 319.464 395.141C318.8 398.266 318.549 401.464 318.72 404.654C318.767 407.786 319.159 410.997 322.134 412.641C326.605 415.139 331.976 411.568 332.211 406.447C332.467 402.598 333.221 398.798 334.451 395.141C334.498 394.961 334.552 394.804 334.599 394.655" stroke="black" stroke-width="4.72" stroke-linecap="round" stroke-linejoin="round"/>
<path d="M334.599 394.632C338.327 393.849 343.878 391.805 346.705 386.536" stroke="black" stroke-width="4.72" stroke-linecap="round" stroke-linejoin="round"/>
<path d="M309.168 414.317C309.168 414.317 312.096 422.038 319.464 422.977C326.832 423.917 322.173 414.317 322.173 414.317C322.173 414.317 325.227 421.082 328.923 421.31C332.618 421.537 335.813 418.178 334.537 414.317C334.537 414.317 335.664 420.527 341.13 419.845C346.595 419.164 344.34 414.317 344.34 414.317" stroke="black" stroke-width="4.72" stroke-linecap="round" stroke-linejoin="round"/>
<g opacity="0.54">
<path opacity="0.54" d="M225.12 524.288L219.835 600.615C216.969 605.798 213.743 610.387 210.87 613.221C210.486 613.08 210.087 612.939 209.719 612.767C209.014 612.524 208.317 612.242 207.652 611.984C196.94 607.286 188.86 598.54 186.432 588.666C184.303 579.983 186.229 570.603 182.094 562.444C177.052 552.398 163.302 546.095 161.65 534.749C160.084 524.139 169.629 514.391 168.087 504.008C166.301 492.263 151.879 485.279 149.185 473.792C147.502 466.651 149.005 458.461 148.402 451.085C147.689 442.868 146.298 434.723 144.244 426.734C165.534 425.168 187.207 436.913 194.106 453.724C199.743 467.481 196.345 483.556 205.169 496.092C209.961 502.881 217.948 507.955 222.074 515.064C223.347 517.279 224.268 519.677 224.807 522.174C224.846 522.346 224.846 522.526 224.878 522.659C224.917 522.941 224.948 523.153 224.979 523.364C225.05 523.975 225.12 524.288 225.12 524.288Z" fill="#B155FE"/>
<path opacity="0.54" d="M225.159 524.258H225.12C225.12 524.258 225.05 523.945 224.979 523.35C225.046 523.591 225.093 523.837 225.12 524.086C225.159 524.149 225.159 524.219 225.159 524.258Z" fill="#B155FE"/>
</g>
<path d="M295.496 494.497C292.693 504.402 277.644 510.423 275.82 520.579C274.207 529.576 284.151 537.977 282.506 547.115C280.76 556.926 266.471 562.352 261.224 571.035C256.949 578.082 258.946 586.155 256.738 593.648C254.185 602.16 245.776 609.755 234.54 613.779C233.843 614.03 233.177 614.273 232.473 614.484C232.089 614.586 231.69 614.727 231.283 614.829C227.571 611.783 223.335 606.427 219.866 600.648L225.152 524.322H225.191C229.286 520.853 233.976 517.666 237.233 513.814C240.773 509.648 242.417 505.099 243.497 500.338H243.513V499.814C245.079 492.281 245.196 484.404 248.736 477.263C255.908 462.731 278.419 452.615 300.586 453.946C298.496 460.807 297.065 467.852 296.311 474.985C295.669 481.296 297.25 488.366 295.496 494.497Z" fill="#B155FE"/>
<path d="M243.513 499.75V500.274H243.411C243.466 500.094 243.513 499.922 243.513 499.75Z" fill="#B155FE"/>
<path d="M243.513 499.748C243.513 499.921 243.443 500.093 243.411 500.273C242.362 505.034 240.718 509.583 237.147 513.748C233.89 517.601 229.2 520.795 225.105 524.256C225.105 524.256 225.105 524.147 225.066 524.115C225.038 523.867 224.991 523.62 224.925 523.379C224.925 523.168 224.862 522.956 224.823 522.675C224.823 522.541 224.823 522.361 224.752 522.189C224.214 519.693 223.292 517.295 222.02 515.079C217.893 507.97 209.907 502.896 205.115 496.107C205.115 496.107 207.284 460.324 225.59 449.433C242.981 439.136 243.513 493.79 243.513 499.748Z" fill="#B155FE"/>
<path d="M243.513 499.75V500.274H243.411C243.466 500.094 243.513 499.922 243.513 499.75Z" fill="#B155FE"/>
<path d="M225.12 524.116V524.289C225.12 524.289 225.05 523.975 224.979 523.38C225.046 523.622 225.093 523.867 225.12 524.116Z" fill="#B155FE"/>
<path d="M223.492 524.297C227.571 520.821 232.3 517.595 235.573 513.75C244.75 502.914 241.219 489.07 247.107 477.192C254.271 462.675 276.861 452.559 298.973 453.89C296.863 460.747 295.427 467.794 294.682 474.929C294.024 481.279 295.598 488.358 293.899 494.504C291.08 504.401 276.039 510.407 274.207 520.57C272.586 529.559 282.553 537.961 280.901 547.098C279.147 556.909 264.873 562.328 259.612 571.011C255.328 578.058 257.341 586.131 255.117 593.64C252.424 602.691 243.082 610.694 230.844 614.46C230.453 614.593 230.061 614.726 229.638 614.828C225.927 611.782 221.691 606.434 218.214 600.648" stroke="black" stroke-width="4.72" stroke-miterlimit="10"/>
<path d="M285.443 465.273C252.408 500.829 236.897 575.802 230.828 614.474C230.335 617.739 229.889 620.738 229.505 623.416" stroke="black" stroke-width="4.72" stroke-miterlimit="10"/>
<path d="M288.489 645.192L273.267 734.877C272.908 737.335 271.688 739.587 269.823 741.23C267.959 742.873 265.572 743.802 263.088 743.85H183.723C181.218 743.795 178.815 742.846 176.949 741.175C175.082 739.503 173.875 737.219 173.544 734.736L159.528 645.192H288.489Z" stroke="black" stroke-width="4.72" stroke-miterlimit="10"/>
<path d="M302.927 635.202C302.496 640.855 298.018 645.208 292.646 645.208H155.621C150.305 645.208 145.865 640.949 145.356 635.358C144.769 628.969 149.537 623.433 155.621 623.433H292.646C298.675 623.433 303.42 628.859 302.927 635.202Z" stroke="black" stroke-width="4.72" stroke-miterlimit="10"/>
<path d="M209.241 613.237C215.121 607.396 222.317 594.398 225.512 583.773C228.135 575.011 223.507 565.999 222.45 557.018C220.79 542.924 227.783 527.82 220.415 515.072C216.312 507.963 208.325 502.905 203.533 496.092C194.701 483.564 198.091 467.513 192.446 453.756C185.571 436.913 163.898 425.207 142.616 426.734C144.65 434.733 146.027 442.885 146.734 451.109C147.368 458.461 145.849 466.652 147.517 473.816C150.219 485.303 164.657 492.256 166.427 504.024C167.993 514.43 158.424 524.163 159.998 534.757C161.69 546.118 175.384 552.398 180.45 562.46C184.561 570.634 182.635 579.999 184.772 588.674C187.45 599.511 196.925 609.032 209.241 613.237Z" stroke="black" stroke-width="4.72" stroke-miterlimit="10"/>
<path d="M155.606 439.936C187.317 481.121 202.241 567.956 208.067 612.783C208.568 616.698 209.014 620.229 209.366 623.416" stroke="black" stroke-width="4.72" stroke-miterlimit="10"/>
<path d="M203.533 496.094C203.533 496.094 205.71 460.311 224.008 449.427C242.307 438.543 241.947 499.554 241.947 499.554" stroke="black" stroke-width="4.72" stroke-miterlimit="10"/>
<path d="M223.492 524.297C223.492 524.297 219.749 503.821 226.303 483.698" stroke="black" stroke-width="4.72" stroke-miterlimit="10"/>
<path d="M644.667 414.317H576.163" stroke="black" stroke-width="4.72" stroke-linecap="round" stroke-linejoin="round"/>
<path d="M645.779 395.139H578.355" stroke="black" stroke-width="4.72" stroke-linecap="round" stroke-linejoin="round"/>
<path d="M165.08 743.85H601.352" stroke="black" stroke-width="4.72" stroke-miterlimit="10"/>
</svg>
