<svg width="1228" height="819" viewBox="0 0 1228 819" fill="none" xmlns="http://www.w3.org/2000/svg">
<path fill-rule="evenodd" clip-rule="evenodd" d="M963.012 276.075C962.514 275.717 961.352 275.591 960.808 275.483C958.548 275.038 956.225 274.845 953.919 274.845C946.827 274.856 939.615 275.552 932.643 276.757C928.207 277.522 922.859 280.098 918.449 278.699C910.773 276.262 903.014 276.382 895.73 279.861C889.071 283.042 884.016 289.084 881.066 295.612C880.621 296.598 878.815 300.225 878.304 302.67C878.086 303.17 877.875 303.673 877.686 304.184C877.15 305.635 876.667 307.11 876.22 308.59C876.028 309.22 875.548 310.613 876.118 310.882C875.206 312.567 874.397 314.303 873.723 316.095C871.764 321.308 869.621 327.026 868.932 332.551C868.677 334.597 868.667 336.654 868.904 338.704C869.021 339.717 868.973 341.754 869.659 342.525C871.117 344.159 871.865 341.871 871.701 340.781C870.447 332.474 872.869 324.674 875.74 316.865C877.598 311.817 880.648 307.197 884.066 303.014C886.832 299.628 889.799 296.961 893.59 294.716C898.227 291.971 903.184 289.752 908.095 287.525C911.325 286.061 914.559 284.635 917.879 283.373C918.618 283.092 919.779 282.371 920.598 282.369C922.333 282.363 924.786 283.641 926.455 284.116C931.952 285.68 937.522 287.682 943.212 288.481C946.855 288.994 950.276 288.416 953.679 287.202C954.03 287.078 954.611 286.759 955.33 286.303C957.866 285.329 960.255 284.104 962.339 282.335C963.547 281.316 964.635 279.999 965.631 278.794C965.926 278.434 966.055 278.021 966.065 277.628C966.286 277.511 966.434 277.373 966.47 277.212C966.719 276.026 964.46 276.005 963.012 276.075Z" fill="#A12FFF" fill-opacity="0.7"/>
<path fill-rule="evenodd" clip-rule="evenodd" d="M386.663 374.952C385.271 376.079 383.906 377.231 382.575 378.428C381.559 379.342 379.763 380.435 379.399 381.818C379.019 383.255 380.216 384.601 381.16 385.47C386.156 390.066 391.781 393.174 398.703 393.691C409.362 394.487 418.639 391.764 427.887 386.408C434.383 382.646 438.686 377.08 439.626 369.565C447.363 372.781 454.845 377.213 461.203 382.653C464.341 385.337 467.043 388.311 469.542 391.607C471.143 393.719 472.691 395.864 474.128 398.092C474.753 399.061 475.388 400.777 476.419 401.334C477.63 401.99 479.094 400.962 479.034 399.617C478.983 398.496 477.774 397.197 477.208 396.281C476.269 394.76 475.315 393.249 474.311 391.77C472.686 389.376 471.007 387.014 469.175 384.773C465.058 379.738 459.821 375.579 454.392 372.032C443.976 365.227 432.545 360.94 419.872 360.577C412.079 360.354 405.524 363.016 398.86 366.992C394.711 369.469 390.428 371.903 386.663 374.952Z" fill="#BB88E4"/>
<path fill-rule="evenodd" clip-rule="evenodd" d="M487.748 342.04C479.627 333.675 471.478 325.416 462.405 318.051C457.058 313.711 451.423 309.766 445.905 305.65C446.541 306.208 447.165 306.782 447.775 307.37C446.052 306.201 443.797 305.54 441.971 304.457C439.934 303.25 437.986 301.869 436.076 300.476C432.348 297.759 428.676 294.99 424.843 292.415C420.573 289.546 416.148 286.895 411.805 284.135C408.119 281.791 404.389 279.226 400.445 277.312C398.297 276.268 396.143 275.03 393.985 273.941C393.263 273.576 385.935 268.949 385.954 268.935C386.359 268.63 390.047 270.363 390.616 270.596C392.282 271.276 393.876 272.091 395.477 272.901C394.598 271.167 393.902 269.346 393.523 267.428C393.406 266.836 392.469 262.526 392.949 262.165C393.188 261.985 395.525 269.695 395.645 270.436C395.743 271.037 395.728 271.905 395.926 272.475C396.244 273.396 396.228 273.118 396.929 273.636C398.214 274.587 399.919 275.181 401.309 275.976C402.059 276.395 404.381 278.054 405.779 278.527C410.009 280.583 414.297 283.744 418.317 286.369C417.262 284.386 416.459 282.312 415.874 280.14C415.735 279.624 414.232 274.997 414.597 274.722C415.007 274.413 417.87 281.481 418.04 282.149C418.354 283.392 418.42 284.776 418.814 285.985C419.247 287.312 420.598 287.783 421.815 288.556C426.294 291.403 430.621 294.427 434.874 297.59C439.515 289.335 434.164 279.367 429.654 272.44C426.402 267.449 422.026 263.168 417.405 259.432C411.237 254.446 404.181 250.462 397.134 246.818C388.922 242.573 380.047 239.942 370.819 238.727C365.993 238.091 361.056 238.109 356.182 238.312C353.8 238.412 351.514 238.727 349.233 239.504C348.203 239.855 347.209 240.296 346.241 240.791C345.505 241.166 343.724 241.564 343.302 242.123C339.818 246.657 338.036 251.176 338.308 256.874C338.565 262.267 340.269 267.664 342.58 272.475C345.155 277.833 348.465 282.695 352.796 286.775C356.1 289.889 359.793 292.6 363.463 295.274C376.513 304.785 393.059 313.058 409.961 310.933C415.433 310.245 420.637 308.331 425.5 305.731C426.646 305.118 427.785 304.498 428.867 303.775C429.596 303.287 431.546 301.09 432.279 301.01C433.285 300.9 435.45 302.946 436.394 303.569C443.563 308.301 450.544 313.291 457.379 318.481C464.652 324.005 471.566 329.903 478.278 336.079C481.133 338.706 483.969 341.339 486.741 344.054C487.386 344.686 488.964 347.012 490.134 347.118C490.874 347.184 491.373 346.552 491.268 345.867C491.084 344.677 488.579 342.895 487.748 342.04Z" fill="#E9CEFF"/>
<path fill-rule="evenodd" clip-rule="evenodd" d="M954.482 309.578C951.337 308.891 947.86 308.944 944.66 309C927.479 309.234 910.599 317.371 899.618 330.372C890.268 341.439 887.697 355.2 885.85 369.11C885.667 370.491 885.589 371.863 885.485 373.247C885.463 373.544 885.43 373.809 885.394 374.059C884.668 374.708 884.287 375.465 884.717 376.297C883.117 379.799 881.763 383.39 880.601 387.094C877.183 397.995 873.706 409.104 875.847 420.568C876.348 414.259 877.401 407.809 878.66 401.603C878.732 401.247 878.81 400.894 878.892 400.542C878.901 400.505 878.908 400.467 878.916 400.43C879.362 398.53 879.941 396.687 880.646 394.873C880.653 394.853 880.66 394.834 880.668 394.814C880.761 394.575 880.86 394.337 880.957 394.1C881.159 393.609 881.367 393.118 881.586 392.63C881.661 392.463 881.732 392.296 881.801 392.127C882.827 389.613 883.259 386.779 884.179 384.178C884.398 383.587 884.628 382.998 884.868 382.411C884.883 382.377 884.897 382.343 884.912 382.309C885.563 380.731 886.281 379.173 887.042 377.631C887.455 377.32 887.676 376.55 888.033 375.85C888.106 375.712 888.682 374.792 888.853 374.262C889.302 373.396 889.747 372.53 890.198 371.665C890.185 371.67 890.171 371.675 890.157 371.68C890.608 370.849 891.061 370.023 891.51 369.199C891.609 369.019 891.709 368.838 891.808 368.656C891.97 368.367 892.131 368.079 892.291 367.791C893.797 365.097 895.393 362.457 897.05 359.85C897.642 358.919 899.055 357.585 899.326 356.541C899.336 356.501 899.338 356.465 899.345 356.428C902.941 351.376 907.081 346.717 912.047 343.025C911.447 343.674 910.171 345.875 909.834 346.312C908.801 347.646 907.681 348.889 906.556 350.147C904.541 352.4 902.575 354.724 900.828 357.182C897.631 361.677 894.875 366.408 892.267 371.234C892.243 371.262 892.216 371.288 892.193 371.318C890.882 372.933 890.058 375.373 889.115 377.221C892.847 375.492 896.974 374.366 900.803 372.831C904.622 371.301 908.337 369.597 911.925 367.596C916.692 364.936 921.638 361.934 926.142 358.537C931.306 355.334 935.641 350.927 939.468 346.301C944.005 340.829 948.155 335.309 950.719 328.663C951.982 325.399 952.969 321.993 953.559 318.549C953.587 318.399 953.624 318.236 953.651 318.067C954.26 316.877 954.795 315.661 955.247 314.417C955.966 312.443 957.654 310.272 954.482 309.578Z" fill="#A12FFF" fill-opacity="0.7"/>
<path fill-rule="evenodd" clip-rule="evenodd" d="M356.247 320.049C355 318.807 353.6 317.685 351.957 316.886C351.541 316.684 348.446 315.329 348.244 315.627C347.775 316.319 355.873 319.653 356.247 320.049ZM370.922 311.748C370.912 311.8 371.986 313.477 372.278 313.993C372.9 315.089 373.474 316.207 374.015 317.327C373.215 315.348 372.393 313.514 370.922 311.748ZM295.865 325.399C294.832 325.706 293.589 324.497 294.929 324.2C296.015 323.961 295.961 323.904 296.448 323.1C296.844 322.446 297.088 321.649 297.435 320.964C298.171 319.509 299.007 318.122 300.032 316.822C302.229 314.036 304.906 311.634 307.909 309.612C313.149 306.08 319.023 302.854 325.256 301.232C335.165 298.655 346.444 298.495 356.369 300.283C362.515 301.389 368.134 303.313 372.214 307.871C374.254 310.148 375.856 312.817 376.556 315.756C376.739 316.523 376.705 317.377 376.933 318.13C377.285 319.286 377.13 318.978 378.598 319.203C380.202 319.448 381.804 319.699 383.405 319.954C387.598 320.622 391.816 321.331 395.902 322.415C397.247 322.772 398.562 323.207 399.847 323.714C400.818 324.096 404.688 325.298 405.158 326.461C405.941 328.395 403.318 327.518 402.504 327.097C401.79 326.728 401.057 326.384 400.314 326.067C398.442 325.269 396.491 324.652 394.496 324.161C392.341 323.63 390.142 323.234 387.95 322.836C385.908 322.467 383.857 322.13 381.803 321.809C380.662 321.63 379.52 321.457 378.379 321.282C377.988 321.223 377.301 320.912 377.353 321.379C374.953 320.953 372.356 321.015 369.912 320.897C366.917 320.754 363.911 320.636 360.906 320.722C358.739 320.784 356.57 320.915 354.414 321.183C353.154 321.34 351.914 321.569 350.678 321.86C349.999 322.019 347.322 322.357 346.952 322.902C347.111 322.668 350.065 322.895 350.442 322.882C351.946 322.83 353.439 322.693 354.938 322.539C357.719 322.253 360.502 322.103 363.292 322.124C363.282 322.575 361.376 323.379 360.91 323.678C359.867 324.348 358.868 325.079 357.936 325.882C356.294 327.295 354.328 329.044 353.192 330.718C353.527 330.225 355.178 329.583 355.764 329.207C356.703 328.603 357.622 327.958 358.493 327.269C359.296 326.633 360.046 325.946 360.783 325.245C361.519 324.543 362.52 323.084 363.488 322.616C363.547 322.587 363.97 322.894 364.21 322.79C364.451 322.685 364.752 322.159 364.814 322.137C365.716 321.817 367.427 322.216 368.375 322.256C370.834 322.36 373.29 322.497 375.746 322.622C376.506 322.659 377.154 322.501 377.441 323.017C377.747 323.569 377.186 325.018 377.027 325.618C376.434 327.848 375.382 329.849 373.726 331.576C370.625 334.812 366.801 336.97 362.481 338.413C345.936 343.941 328.332 346.155 311.791 340.404C304.944 338.024 294.631 333.769 295.865 325.399Z" fill="#50078C"/>
<mask id="mask0_1_7" style="mask-type:luminance" maskUnits="userSpaceOnUse" x="281" y="428" width="773" height="253">
<path d="M1053.8 428.836H281.582V680.2H1053.8V428.836Z" fill="white"/>
</mask>
<g mask="url(#mask0_1_7)">
<g opacity="0.6">
<path fill-rule="evenodd" clip-rule="evenodd" d="M1053.14 585.833C1064.4 656.004 791.522 701.775 556.653 669.833C321.784 637.891 214.037 513.154 326.113 446.689C438.188 380.224 1041.89 515.662 1053.14 585.833Z" fill="#EBD4FF"/>
</g>
</g>
<path d="M592.989 166.014H461.111C457.036 166.014 453.733 169.317 453.733 173.392V437.169C453.733 441.244 457.036 444.547 461.111 444.547H592.989C597.064 444.547 600.367 441.244 600.367 437.169V173.392C600.367 169.317 597.064 166.014 592.989 166.014Z" fill="#8D28E0"/>
<path fill-rule="evenodd" clip-rule="evenodd" d="M526.589 427.024C534.229 427.024 540.422 420.83 540.422 413.189C540.422 405.549 534.229 399.355 526.589 399.355C518.949 399.355 512.756 405.549 512.756 413.189C512.756 420.83 518.949 427.024 526.589 427.024Z" fill="#D6A4FF"/>
<path fill-rule="evenodd" clip-rule="evenodd" d="M514.6 184.46C515.619 184.46 516.444 183.634 516.444 182.615C516.444 181.596 515.619 180.77 514.6 180.77C513.581 180.77 512.756 181.596 512.756 182.615C512.756 183.634 513.581 184.46 514.6 184.46Z" fill="#D6A4FF"/>
<path d="M538.578 180.77H522.9C521.881 180.77 521.056 181.596 521.056 182.615C521.056 183.634 521.881 184.46 522.9 184.46H538.578C539.596 184.46 540.422 183.634 540.422 182.615C540.422 181.596 539.596 180.77 538.578 180.77Z" fill="#D6A4FF"/>
<path d="M583.767 191.838H470.333C468.296 191.838 466.644 193.49 466.644 195.527V237.953C466.644 239.99 468.296 241.642 470.333 241.642H583.767C585.804 241.642 587.456 239.99 587.456 237.953V195.527C587.456 193.49 585.804 191.838 583.767 191.838Z" fill="#D6A4FF"/>
<mask id="mask1_1_7" style="mask-type:luminance" maskUnits="userSpaceOnUse" x="502" y="206" width="68" height="21">
<path d="M569.933 206.779H502.611V226.701H569.933V206.779Z" fill="white"/>
</mask>
<g mask="url(#mask1_1_7)">
<path d="M567.167 206.779H505.378C503.85 206.779 502.611 208.018 502.611 209.546V211.483C502.611 213.011 503.85 214.25 505.378 214.25H567.167C568.695 214.25 569.933 213.011 569.933 211.483V209.546C569.933 208.018 568.695 206.779 567.167 206.779Z" fill="#50078C"/>
<path d="M545.033 219.23H505.378C503.85 219.23 502.611 220.469 502.611 221.997V223.934C502.611 225.462 503.85 226.701 505.378 226.701H545.033C546.561 226.701 547.8 225.462 547.8 223.934V221.997C547.8 220.469 546.561 219.23 545.033 219.23Z" fill="#50078C"/>
</g>
<path fill-rule="evenodd" clip-rule="evenodd" d="M486.011 227.807C492.123 227.807 497.078 222.852 497.078 216.74C497.078 210.628 492.123 205.672 486.011 205.672C479.9 205.672 474.944 210.628 474.944 216.74C474.944 222.852 479.9 227.807 486.011 227.807Z" fill="#A12FFF"/>
<path d="M583.767 249.02H470.333C468.296 249.02 466.644 250.672 466.644 252.71V284.068C466.644 286.105 468.296 287.757 470.333 287.757H583.767C585.804 287.757 587.456 286.105 587.456 284.068V252.71C587.456 250.672 585.804 249.02 583.767 249.02Z" fill="#D6A4FF"/>
<mask id="mask2_1_7" style="mask-type:luminance" maskUnits="userSpaceOnUse" x="502" y="260" width="68" height="17">
<path d="M569.933 260.641H502.611V276.136H569.933V260.641Z" fill="white"/>
</mask>
<g mask="url(#mask2_1_7)">
<path d="M567.167 260.641H505.378C503.85 260.641 502.611 261.88 502.611 263.408V263.685C502.611 265.213 503.85 266.452 505.378 266.452H567.167C568.695 266.452 569.933 265.213 569.933 263.685V263.408C569.933 261.88 568.695 260.641 567.167 260.641Z" fill="#50078C"/>
<path d="M545.033 270.325H505.378C503.85 270.325 502.611 271.564 502.611 273.092V273.369C502.611 274.897 503.85 276.136 505.378 276.136H545.033C546.561 276.136 547.8 274.897 547.8 273.369V273.092C547.8 271.564 546.561 270.325 545.033 270.325Z" fill="#50078C"/>
</g>
<path fill-rule="evenodd" clip-rule="evenodd" d="M486.011 279.456C492.123 279.456 497.078 274.501 497.078 268.389C497.078 262.276 492.123 257.321 486.011 257.321C479.9 257.321 474.944 262.276 474.944 268.389C474.944 274.501 479.9 279.456 486.011 279.456Z" fill="#A12FFF"/>
<path d="M583.767 295.135H470.333C468.296 295.135 466.644 296.787 466.644 298.824V330.182C466.644 332.22 468.296 333.872 470.333 333.872H583.767C585.804 333.872 587.456 332.22 587.456 330.182V298.824C587.456 296.787 585.804 295.135 583.767 295.135Z" fill="#D6A4FF"/>
<mask id="mask3_1_7" style="mask-type:luminance" maskUnits="userSpaceOnUse" x="502" y="306" width="68" height="17">
<path d="M569.933 306.756H502.611V322.251H569.933V306.756Z" fill="white"/>
</mask>
<g mask="url(#mask3_1_7)">
<path d="M567.167 306.756H505.378C503.85 306.756 502.611 307.995 502.611 309.523V309.8C502.611 311.328 503.85 312.567 505.378 312.567H567.167C568.695 312.567 569.933 311.328 569.933 309.8V309.523C569.933 307.995 568.695 306.756 567.167 306.756Z" fill="#50078C"/>
<path d="M545.033 316.44H505.378C503.85 316.44 502.611 317.679 502.611 319.207V319.484C502.611 321.012 503.85 322.251 505.378 322.251H545.033C546.561 322.251 547.8 321.012 547.8 319.484V319.207C547.8 317.679 546.561 316.44 545.033 316.44Z" fill="#50078C"/>
</g>
<path fill-rule="evenodd" clip-rule="evenodd" d="M486.011 325.571C492.123 325.571 497.078 320.615 497.078 314.503C497.078 308.391 492.123 303.436 486.011 303.436C479.9 303.436 474.944 308.391 474.944 314.503C474.944 320.615 479.9 325.571 486.011 325.571Z" fill="#A12FFF"/>
<path d="M583.767 341.25H470.333C468.296 341.25 466.644 342.902 466.644 344.939V376.297C466.644 378.335 468.296 379.987 470.333 379.987H583.767C585.804 379.987 587.456 378.335 587.456 376.297V344.939C587.456 342.902 585.804 341.25 583.767 341.25Z" fill="#D6A4FF"/>
<mask id="mask4_1_7" style="mask-type:luminance" maskUnits="userSpaceOnUse" x="502" y="352" width="68" height="17">
<path d="M569.933 352.871H502.611V368.366H569.933V352.871Z" fill="white"/>
</mask>
<g mask="url(#mask4_1_7)">
<path d="M567.167 352.871H505.378C503.85 352.871 502.611 354.11 502.611 355.638V355.915C502.611 357.443 503.85 358.681 505.378 358.681H567.167C568.695 358.681 569.933 357.443 569.933 355.915V355.638C569.933 354.11 568.695 352.871 567.167 352.871Z" fill="#50078C"/>
<path d="M545.033 362.555H505.378C503.85 362.555 502.611 363.794 502.611 365.322V365.599C502.611 367.127 503.85 368.366 505.378 368.366H545.033C546.561 368.366 547.8 367.127 547.8 365.599V365.322C547.8 363.794 546.561 362.555 545.033 362.555Z" fill="#50078C"/>
</g>
<path fill-rule="evenodd" clip-rule="evenodd" d="M486.011 371.686C492.123 371.686 497.078 366.73 497.078 360.618C497.078 354.506 492.123 349.551 486.011 349.551C479.9 349.551 474.944 354.506 474.944 360.618C474.944 366.73 479.9 371.686 486.011 371.686Z" fill="#A12FFF"/>
<path fill-rule="evenodd" clip-rule="evenodd" d="M481.529 391.054C480.307 391.054 479.089 391.079 477.869 391.142C476.938 391.191 475.517 390.998 474.73 391.578C473.912 392.18 473.969 393.412 474.097 394.283C474.772 398.887 476.42 402.969 479.868 406.231C485.177 411.253 491.263 413.805 498.465 414.942C503.524 415.74 508.194 414.632 511.918 411.034C514.64 416.084 516.704 421.673 517.739 427.314C518.25 430.098 518.406 432.848 518.317 435.682C518.258 437.497 518.159 439.309 517.964 441.115C517.879 441.9 517.479 443.088 517.786 443.831C518.147 444.701 519.363 444.786 519.909 444.043C520.364 443.425 520.281 442.21 520.374 441.479C520.529 440.263 520.672 439.047 520.774 437.826C520.941 435.849 521.064 433.867 521.056 431.882C521.034 427.425 520.043 422.95 518.687 418.718C516.087 410.599 511.867 403.384 505.305 397.723C501.269 394.242 496.651 392.833 491.412 392.076C488.149 391.605 484.833 391.054 481.529 391.054Z" fill="#89C5CC"/>
<path fill-rule="evenodd" clip-rule="evenodd" d="M500.371 423.334C487.184 423.334 478.303 433.963 474.104 445.01C472.521 449.174 472.15 453.746 471.54 458.118C471.344 459.522 471.417 461.66 470.847 462.909C470.64 463.363 470.166 463.525 470.393 464.143C470.531 464.517 470.799 464.747 471.204 464.82C472.033 464.973 473.206 464.07 473.917 463.714C479.816 460.755 483.691 456.18 486.852 450.584C488.813 447.115 490.801 443.513 491.965 439.705C492.676 437.378 493.09 434.929 493.334 432.515C493.429 431.564 493.522 430.591 493.516 429.636C493.511 428.687 493.069 428.185 492.752 427.359C497.152 425.694 502.119 425.24 506.576 426.966C510.698 428.562 514.122 431.647 516.04 435.524C516.538 436.531 516.922 437.593 517.202 438.678C517.385 439.388 517.393 440.308 517.734 440.95C518.556 442.507 520.288 441.467 520.122 440.018C519.658 435.977 517.347 431.92 514.393 429.111C510.666 425.567 505.616 423.334 500.371 423.334Z" fill="#89C5CC"/>
<path d="M653.856 189.993H521.978C517.903 189.993 514.6 193.297 514.6 197.372V461.149C514.6 465.224 517.903 468.527 521.978 468.527H653.856C657.93 468.527 661.233 465.224 661.233 461.149V197.372C661.233 193.297 657.93 189.993 653.856 189.993Z" fill="#50078C"/>
<path fill-rule="evenodd" clip-rule="evenodd" d="M587.456 451.003C595.095 451.003 601.289 444.809 601.289 437.169C601.289 429.529 595.095 423.334 587.456 423.334C579.816 423.334 573.622 429.529 573.622 437.169C573.622 444.809 579.816 451.003 587.456 451.003Z" fill="#D6A4FF"/>
<path fill-rule="evenodd" clip-rule="evenodd" d="M575.467 208.439C576.486 208.439 577.311 207.614 577.311 206.595C577.311 205.576 576.486 204.75 575.467 204.75C574.448 204.75 573.622 205.576 573.622 206.595C573.622 207.614 574.448 208.439 575.467 208.439Z" fill="#D6A4FF"/>
<path d="M599.444 204.75H583.767C582.748 204.75 581.922 205.576 581.922 206.595C581.922 207.613 582.748 208.439 583.767 208.439H599.444C600.463 208.439 601.289 207.613 601.289 206.595C601.289 205.576 600.463 204.75 599.444 204.75Z" fill="#D6A4FF"/>
<path d="M644.633 215.818H531.2C529.163 215.818 527.511 217.469 527.511 219.507V261.932C527.511 263.97 529.163 265.622 531.2 265.622H644.633C646.671 265.622 648.322 263.97 648.322 261.932V219.507C648.322 217.469 646.671 215.818 644.633 215.818Z" fill="#D6A4FF"/>
<mask id="mask5_1_7" style="mask-type:luminance" maskUnits="userSpaceOnUse" x="535" y="230" width="69" height="21">
<path d="M603.133 230.759H535.811V250.68H603.133V230.759Z" fill="white"/>
</mask>
<g mask="url(#mask5_1_7)">
<path d="M600.367 230.759H538.578C537.05 230.759 535.811 231.998 535.811 233.526V235.463C535.811 236.991 537.05 238.229 538.578 238.229H600.367C601.895 238.229 603.133 236.991 603.133 235.463V233.526C603.133 231.998 601.895 230.759 600.367 230.759Z" fill="#50078C"/>
<path d="M578.233 243.21H538.578C537.05 243.21 535.811 244.449 535.811 245.977V247.914C535.811 249.442 537.05 250.68 538.578 250.68H578.233C579.761 250.68 581 249.442 581 247.914V245.977C581 244.449 579.761 243.21 578.233 243.21Z" fill="#50078C"/>
</g>
<path fill-rule="evenodd" clip-rule="evenodd" d="M635.411 247.176C638.976 247.176 641.867 244.285 641.867 240.72C641.867 237.154 638.976 234.264 635.411 234.264C631.846 234.264 628.956 237.154 628.956 240.72C628.956 244.285 631.846 247.176 635.411 247.176Z" fill="#50078C"/>
<path fill-rule="evenodd" clip-rule="evenodd" d="M635.411 243.487C636.939 243.487 638.178 242.248 638.178 240.72C638.178 239.191 636.939 237.953 635.411 237.953C633.883 237.953 632.644 239.191 632.644 240.72C632.644 242.248 633.883 243.487 635.411 243.487Z" fill="#8D28E0"/>
<path d="M644.633 273H531.2C529.163 273 527.511 274.652 527.511 276.689V308.047C527.511 310.085 529.163 311.737 531.2 311.737H644.633C646.671 311.737 648.322 310.085 648.322 308.047V276.689C648.322 274.652 646.671 273 644.633 273Z" fill="#D6A4FF"/>
<mask id="mask6_1_7" style="mask-type:luminance" maskUnits="userSpaceOnUse" x="563" y="284" width="68" height="17">
<path d="M630.8 284.621H563.478V300.116H630.8V284.621Z" fill="white"/>
</mask>
<g mask="url(#mask6_1_7)">
<path d="M628.033 284.621H566.244C564.716 284.621 563.478 285.86 563.478 287.388V287.665C563.478 289.193 564.716 290.431 566.244 290.431H628.033C629.561 290.431 630.8 289.193 630.8 287.665V287.388C630.8 285.86 629.561 284.621 628.033 284.621Z" fill="#50078C"/>
<path d="M605.9 294.305H566.244C564.716 294.305 563.478 295.544 563.478 297.072V297.349C563.478 298.877 564.716 300.116 566.244 300.116H605.9C607.428 300.116 608.667 298.877 608.667 297.349V297.072C608.667 295.544 607.428 294.305 605.9 294.305Z" fill="#50078C"/>
</g>
<path fill-rule="evenodd" clip-rule="evenodd" d="M546.878 303.436C552.989 303.436 557.944 298.48 557.944 292.368C557.944 286.256 552.989 281.301 546.878 281.301C540.766 281.301 535.811 286.256 535.811 292.368C535.811 298.48 540.766 303.436 546.878 303.436Z" fill="#A12FFF"/>
<path d="M644.633 319.115H531.2C529.163 319.115 527.511 320.767 527.511 322.804V354.162C527.511 356.2 529.163 357.851 531.2 357.851H644.633C646.671 357.851 648.322 356.2 648.322 354.162V322.804C648.322 320.767 646.671 319.115 644.633 319.115Z" fill="#D6A4FF"/>
<mask id="mask7_1_7" style="mask-type:luminance" maskUnits="userSpaceOnUse" x="535" y="330" width="69" height="17">
<path d="M603.133 330.736H535.811V346.23H603.133V330.736Z" fill="white"/>
</mask>
<g mask="url(#mask7_1_7)">
<path d="M600.367 330.736H538.578C537.05 330.736 535.811 331.975 535.811 333.503V333.779C535.811 335.308 537.05 336.546 538.578 336.546H600.367C601.895 336.546 603.133 335.308 603.133 333.779V333.503C603.133 331.975 601.895 330.736 600.367 330.736Z" fill="#50078C"/>
<path d="M578.233 340.42H538.578C537.05 340.42 535.811 341.659 535.811 343.187V343.464C535.811 344.992 537.05 346.231 538.578 346.231H578.233C579.761 346.231 581 344.992 581 343.464V343.187C581 341.659 579.761 340.42 578.233 340.42Z" fill="#50078C"/>
</g>
<path fill-rule="evenodd" clip-rule="evenodd" d="M635.411 344.939C638.976 344.939 641.867 342.049 641.867 338.483C641.867 334.918 638.976 332.027 635.411 332.027C631.846 332.027 628.956 334.918 628.956 338.483C628.956 342.049 631.846 344.939 635.411 344.939Z" fill="#50078C"/>
<path fill-rule="evenodd" clip-rule="evenodd" d="M635.411 341.25C636.939 341.25 638.178 340.011 638.178 338.483C638.178 336.955 636.939 335.716 635.411 335.716C633.883 335.716 632.644 336.955 632.644 338.483C632.644 340.011 633.883 341.25 635.411 341.25Z" fill="#8D28E0"/>
<path d="M644.633 365.23H531.2C529.163 365.23 527.511 366.882 527.511 368.919V400.277C527.511 402.315 529.163 403.966 531.2 403.966H644.633C646.671 403.966 648.322 402.315 648.322 400.277V368.919C648.322 366.882 646.671 365.23 644.633 365.23Z" fill="#D6A4FF"/>
<mask id="mask8_1_7" style="mask-type:luminance" maskUnits="userSpaceOnUse" x="563" y="376" width="68" height="17">
<path d="M630.8 376.851H563.478V392.345H630.8V376.851Z" fill="white"/>
</mask>
<g mask="url(#mask8_1_7)">
<path d="M628.033 376.851H566.244C564.716 376.851 563.478 378.09 563.478 379.618V379.894C563.478 381.422 564.716 382.661 566.244 382.661H628.033C629.561 382.661 630.8 381.422 630.8 379.894V379.618C630.8 378.09 629.561 376.851 628.033 376.851Z" fill="#50078C"/>
<path d="M605.9 386.535H566.244C564.716 386.535 563.478 387.774 563.478 389.302V389.578C563.478 391.107 564.716 392.345 566.244 392.345H605.9C607.428 392.345 608.667 391.107 608.667 389.578V389.302C608.667 387.774 607.428 386.535 605.9 386.535Z" fill="#50078C"/>
</g>
<path fill-rule="evenodd" clip-rule="evenodd" d="M546.878 395.666C552.989 395.666 557.944 390.71 557.944 384.598C557.944 378.486 552.989 373.53 546.878 373.53C540.766 373.53 535.811 378.486 535.811 384.598C535.811 390.71 540.766 395.666 546.878 395.666Z" fill="#A12FFF"/>
<path d="M877.033 213.051H582.844C578.77 213.051 575.467 216.354 575.467 220.429V524.787C575.467 528.862 578.77 532.166 582.844 532.166H877.033C881.108 532.166 884.411 528.862 884.411 524.787V220.429C884.411 216.354 881.108 213.051 877.033 213.051Z" fill="#8D28E0"/>
<path d="M862.278 252.709H812.478C808.403 252.709 805.1 256.013 805.1 260.088V320.037C805.1 324.112 808.403 327.416 812.478 327.416H862.278C866.352 327.416 869.656 324.112 869.656 320.037V260.088C869.656 256.013 866.352 252.709 862.278 252.709Z" fill="#D6A4FF"/>
<path fill-rule="evenodd" clip-rule="evenodd" d="M837.378 296.057C845.527 296.057 852.133 289.451 852.133 281.301C852.133 273.15 845.527 266.544 837.378 266.544C829.228 266.544 822.622 273.15 822.622 281.301C822.622 289.451 829.228 296.057 837.378 296.057Z" fill="#50078C"/>
<path d="M857.667 299.747H817.089C815.561 299.747 814.322 300.985 814.322 302.514C814.322 304.042 815.561 305.28 817.089 305.28H857.667C859.195 305.28 860.433 304.042 860.433 302.514C860.433 300.985 859.195 299.747 857.667 299.747Z" fill="#50078C"/>
<path d="M850.289 308.97H824.467C822.939 308.97 821.7 310.208 821.7 311.736C821.7 313.265 822.939 314.503 824.467 314.503H850.289C851.817 314.503 853.056 313.265 853.056 311.736C853.056 310.208 851.817 308.97 850.289 308.97Z" fill="#50078C"/>
<path d="M575.467 220.429C575.467 216.354 578.77 213.051 582.844 213.051H877.033C881.108 213.051 884.411 216.354 884.411 220.429V237.953H575.467V220.429Z" fill="#A12FFF"/>
<path fill-rule="evenodd" clip-rule="evenodd" d="M587.456 229.652C589.493 229.652 591.144 228 591.144 225.963C591.144 223.926 589.493 222.274 587.456 222.274C585.418 222.274 583.767 223.926 583.767 225.963C583.767 228 585.418 229.652 587.456 229.652Z" fill="#8D28E0"/>
<path fill-rule="evenodd" clip-rule="evenodd" d="M598.522 229.652C600.559 229.652 602.211 228 602.211 225.963C602.211 223.926 600.559 222.274 598.522 222.274C596.485 222.274 594.833 223.926 594.833 225.963C594.833 228 596.485 229.652 598.522 229.652Z" fill="#8D28E0"/>
<path fill-rule="evenodd" clip-rule="evenodd" d="M609.589 229.652C611.626 229.652 613.278 228 613.278 225.963C613.278 223.926 611.626 222.274 609.589 222.274C607.552 222.274 605.9 223.926 605.9 225.963C605.9 228 607.552 229.652 609.589 229.652Z" fill="#8D28E0"/>
<path d="M862.278 334.794H812.478C808.403 334.794 805.1 338.097 805.1 342.172V506.341C805.1 510.416 808.403 513.72 812.478 513.72H862.278C866.352 513.72 869.656 510.416 869.656 506.341V342.172C869.656 338.097 866.352 334.794 862.278 334.794Z" fill="#D6A4FF"/>
<path d="M849.367 351.395H825.389C823.352 351.395 821.7 353.047 821.7 355.085V371.686C821.7 373.723 823.352 375.375 825.389 375.375H849.367C851.404 375.375 853.056 373.723 853.056 371.686V355.085C853.056 353.047 851.404 351.395 849.367 351.395Z" fill="#50078C"/>
<path d="M849.367 382.753H825.389C823.352 382.753 821.7 384.405 821.7 386.443V402.122C821.7 404.159 823.352 405.811 825.389 405.811H849.367C851.404 405.811 853.056 404.159 853.056 402.122V386.443C853.056 384.405 851.404 382.753 849.367 382.753Z" fill="#50078C"/>
<path d="M849.367 413.189H825.389C823.352 413.189 821.7 414.841 821.7 416.878V432.558C821.7 434.595 823.352 436.247 825.389 436.247H849.367C851.404 436.247 853.056 434.595 853.056 432.558V416.878C853.056 414.841 851.404 413.189 849.367 413.189Z" fill="#50078C"/>
<path d="M849.367 474.061H825.389C823.352 474.061 821.7 475.713 821.7 477.75V493.429C821.7 495.467 823.352 497.118 825.389 497.118H849.367C851.404 497.118 853.056 495.467 853.056 493.429V477.75C853.056 475.713 851.404 474.061 849.367 474.061Z" fill="#50078C"/>
<path d="M849.367 443.625H825.389C823.352 443.625 821.7 445.277 821.7 447.314V462.993C821.7 465.031 823.352 466.682 825.389 466.682H849.367C851.404 466.682 853.056 465.031 853.056 462.993V447.314C853.056 445.277 851.404 443.625 849.367 443.625Z" fill="#A12FFF"/>
<path d="M794.033 253.632H593.911C591.874 253.632 590.222 255.284 590.222 257.321V293.291C590.222 295.328 591.874 296.98 593.911 296.98H794.033C796.071 296.98 797.722 295.328 797.722 293.291V257.321C797.722 255.284 796.071 253.632 794.033 253.632Z" fill="#D6A4FF"/>
<mask id="mask9_1_7" style="mask-type:luminance" maskUnits="userSpaceOnUse" x="598" y="266" width="155" height="18">
<path d="M752.533 266.636H598.522V283.975H752.533V266.636Z" fill="white"/>
</mask>
<g mask="url(#mask9_1_7)">
<path d="M749.767 266.636H601.289C599.761 266.636 598.522 267.875 598.522 269.403V270.372C598.522 271.9 599.761 273.138 601.289 273.138H749.767C751.295 273.138 752.533 271.9 752.533 270.372V269.403C752.533 267.875 751.295 266.636 749.767 266.636Z" fill="#50078C"/>
<path d="M699.133 277.473H601.289C599.761 277.473 598.522 278.712 598.522 280.24V281.208C598.522 282.737 599.761 283.975 601.289 283.975H699.133C700.661 283.975 701.9 282.737 701.9 281.208V280.24C701.9 278.712 700.661 277.473 699.133 277.473Z" fill="#50078C"/>
</g>
<path fill-rule="evenodd" clip-rule="evenodd" d="M775.546 281.762C779.112 281.762 782.002 278.871 782.002 275.306C782.002 271.74 779.112 268.85 775.546 268.85C771.981 268.85 769.091 271.74 769.091 275.306C769.091 278.871 771.981 281.762 775.546 281.762Z" fill="#50078C"/>
<path fill-rule="evenodd" clip-rule="evenodd" d="M775.546 278.073C777.075 278.073 778.313 276.834 778.313 275.306C778.313 273.778 777.075 272.539 775.546 272.539C774.018 272.539 772.78 273.778 772.78 275.306C772.78 276.834 774.018 278.073 775.546 278.073Z" fill="#8D28E0"/>
<path d="M794.033 304.358H593.911C591.874 304.358 590.222 306.01 590.222 308.047V336.639C590.222 338.676 591.874 340.328 593.911 340.328H794.033C796.071 340.328 797.722 338.676 797.722 336.639V308.047C797.722 306.01 796.071 304.358 794.033 304.358Z" fill="#D6A4FF"/>
<mask id="mask10_1_7" style="mask-type:luminance" maskUnits="userSpaceOnUse" x="598" y="315" width="155" height="15">
<path d="M752.533 315.149H598.522V329.537H752.533V315.149Z" fill="white"/>
</mask>
<g mask="url(#mask10_1_7)">
<path d="M749.836 315.149H601.22C599.73 315.149 598.522 316.357 598.522 317.847C598.522 319.337 599.73 320.544 601.22 320.544H749.836C751.326 320.544 752.533 319.337 752.533 317.847C752.533 316.357 751.326 315.149 749.836 315.149Z" fill="#50078C"/>
<path d="M699.202 324.141H601.22C599.73 324.141 598.522 325.349 598.522 326.839C598.522 328.329 599.73 329.537 601.22 329.537H699.202C700.692 329.537 701.9 328.329 701.9 326.839C701.9 325.349 700.692 324.141 699.202 324.141Z" fill="#50078C"/>
</g>
<path fill-rule="evenodd" clip-rule="evenodd" d="M775.546 328.799C779.112 328.799 782.002 325.909 782.002 322.343C782.002 318.777 779.112 315.887 775.546 315.887C771.981 315.887 769.091 318.777 769.091 322.343C769.091 325.909 771.981 328.799 775.546 328.799Z" fill="#50078C"/>
<path fill-rule="evenodd" clip-rule="evenodd" d="M775.546 325.11C777.075 325.11 778.313 323.871 778.313 322.343C778.313 320.815 777.075 319.576 775.546 319.576C774.018 319.576 772.78 320.815 772.78 322.343C772.78 323.871 774.018 325.11 775.546 325.11Z" fill="#8D28E0"/>
<path d="M794.033 347.706H593.911C591.874 347.706 590.222 349.358 590.222 351.395V379.987C590.222 382.024 591.874 383.676 593.911 383.676H794.033C796.071 383.676 797.722 382.024 797.722 379.987V351.395C797.722 349.358 796.071 347.706 794.033 347.706Z" fill="#D6A4FF"/>
<mask id="mask11_1_7" style="mask-type:luminance" maskUnits="userSpaceOnUse" x="598" y="358" width="155" height="15">
<path d="M752.533 358.497H598.522V372.885H752.533V358.497Z" fill="white"/>
</mask>
<g mask="url(#mask11_1_7)">
<path d="M749.836 358.497H601.22C599.73 358.497 598.522 359.705 598.522 361.195C598.522 362.685 599.73 363.892 601.22 363.892H749.836C751.326 363.892 752.533 362.685 752.533 361.195C752.533 359.705 751.326 358.497 749.836 358.497Z" fill="#50078C"/>
<path d="M699.202 367.489H601.22C599.73 367.489 598.522 368.697 598.522 370.187C598.522 371.677 599.73 372.885 601.22 372.885H699.202C700.692 372.885 701.9 371.677 701.9 370.187C701.9 368.697 700.692 367.489 699.202 367.489Z" fill="#50078C"/>
</g>
<path fill-rule="evenodd" clip-rule="evenodd" d="M775.546 372.147C779.112 372.147 782.002 369.257 782.002 365.691C782.002 362.125 779.112 359.235 775.546 359.235C771.981 359.235 769.091 362.125 769.091 365.691C769.091 369.257 771.981 372.147 775.546 372.147Z" fill="#50078C"/>
<path fill-rule="evenodd" clip-rule="evenodd" d="M775.546 368.458C777.075 368.458 778.313 367.219 778.313 365.691C778.313 364.163 777.075 362.924 775.546 362.924C774.018 362.924 772.78 364.163 772.78 365.691C772.78 367.219 774.018 368.458 775.546 368.458Z" fill="#AFB9C5"/>
<path d="M794.033 477.75H593.911C591.874 477.75 590.222 479.402 590.222 481.439V510.03C590.222 512.068 591.874 513.72 593.911 513.72H794.033C796.071 513.72 797.722 512.068 797.722 510.03V481.439C797.722 479.402 796.071 477.75 794.033 477.75Z" fill="#D6A4FF"/>
<mask id="mask12_1_7" style="mask-type:luminance" maskUnits="userSpaceOnUse" x="598" y="488" width="155" height="15">
<path d="M752.533 488.541H598.522V502.929H752.533V488.541Z" fill="white"/>
</mask>
<g mask="url(#mask12_1_7)">
<path d="M749.836 488.541H601.22C599.73 488.541 598.522 489.749 598.522 491.239C598.522 492.729 599.73 493.936 601.22 493.936H749.836C751.326 493.936 752.533 492.729 752.533 491.239C752.533 489.749 751.326 488.541 749.836 488.541Z" fill="#50078C"/>
<path d="M699.202 497.533H601.22C599.73 497.533 598.522 498.741 598.522 500.231C598.522 501.721 599.73 502.929 601.22 502.929H699.202C700.692 502.929 701.9 501.721 701.9 500.231C701.9 498.741 700.692 497.533 699.202 497.533Z" fill="#50078C"/>
</g>
<path fill-rule="evenodd" clip-rule="evenodd" d="M775.546 502.191C779.112 502.191 782.002 499.3 782.002 495.735C782.002 492.169 779.112 489.279 775.546 489.279C771.981 489.279 769.091 492.169 769.091 495.735C769.091 499.3 771.981 502.191 775.546 502.191Z" fill="#50078C"/>
<path fill-rule="evenodd" clip-rule="evenodd" d="M775.546 498.502C777.075 498.502 778.313 497.263 778.313 495.735C778.313 494.207 777.075 492.968 775.546 492.968C774.018 492.968 772.78 494.207 772.78 495.735C772.78 497.263 774.018 498.502 775.546 498.502Z" fill="#8D28E0"/>
<path d="M794.033 434.402H593.911C591.874 434.402 590.222 436.054 590.222 438.091V466.683C590.222 468.72 591.874 470.372 593.911 470.372H794.033C796.071 470.372 797.722 468.72 797.722 466.683V438.091C797.722 436.054 796.071 434.402 794.033 434.402Z" fill="#D6A4FF"/>
<mask id="mask13_1_7" style="mask-type:luminance" maskUnits="userSpaceOnUse" x="598" y="445" width="155" height="15">
<path d="M752.533 445.193H598.522V459.581H752.533V445.193Z" fill="white"/>
</mask>
<g mask="url(#mask13_1_7)">
<path d="M749.836 445.193H601.22C599.73 445.193 598.522 446.401 598.522 447.891C598.522 449.381 599.73 450.588 601.22 450.588H749.836C751.326 450.588 752.533 449.381 752.533 447.891C752.533 446.401 751.326 445.193 749.836 445.193Z" fill="#50078C"/>
<path d="M699.202 454.185H601.22C599.73 454.185 598.522 455.393 598.522 456.883C598.522 458.373 599.73 459.581 601.22 459.581H699.202C700.692 459.581 701.9 458.373 701.9 456.883C701.9 455.393 700.692 454.185 699.202 454.185Z" fill="#50078C"/>
</g>
<path fill-rule="evenodd" clip-rule="evenodd" d="M775.546 458.843C779.112 458.843 782.002 455.953 782.002 452.387C782.002 448.821 779.112 445.931 775.546 445.931C771.981 445.931 769.091 448.821 769.091 452.387C769.091 455.953 771.981 458.843 775.546 458.843Z" fill="#50078C"/>
<path fill-rule="evenodd" clip-rule="evenodd" d="M775.546 455.154C777.075 455.154 778.313 453.915 778.313 452.387C778.313 450.859 777.075 449.62 775.546 449.62C774.018 449.62 772.78 450.859 772.78 452.387C772.78 453.915 774.018 455.154 775.546 455.154Z" fill="#8D28E0"/>
<path d="M794.033 391.054H593.911C591.874 391.054 590.222 392.706 590.222 394.743V423.335C590.222 425.372 591.874 427.024 593.911 427.024H794.033C796.071 427.024 797.722 425.372 797.722 423.335V394.743C797.722 392.706 796.071 391.054 794.033 391.054Z" fill="#D6A4FF"/>
<mask id="mask14_1_7" style="mask-type:luminance" maskUnits="userSpaceOnUse" x="598" y="401" width="155" height="16">
<path d="M752.533 401.845H598.522V416.233H752.533V401.845Z" fill="white"/>
</mask>
<g mask="url(#mask14_1_7)">
<path d="M749.836 401.845H601.22C599.73 401.845 598.522 403.053 598.522 404.543C598.522 406.033 599.73 407.24 601.22 407.24H749.836C751.326 407.24 752.533 406.033 752.533 404.543C752.533 403.053 751.326 401.845 749.836 401.845Z" fill="#50078C"/>
<path d="M699.202 410.837H601.22C599.73 410.837 598.522 412.045 598.522 413.535C598.522 415.025 599.73 416.233 601.22 416.233H699.202C700.692 416.233 701.9 415.025 701.9 413.535C701.9 412.045 700.692 410.837 699.202 410.837Z" fill="#50078C"/>
</g>
<path fill-rule="evenodd" clip-rule="evenodd" d="M775.546 415.495C779.112 415.495 782.002 412.605 782.002 409.039C782.002 405.473 779.112 402.583 775.546 402.583C771.981 402.583 769.091 405.473 769.091 409.039C769.091 412.605 771.981 415.495 775.546 415.495Z" fill="#50078C"/>
<path fill-rule="evenodd" clip-rule="evenodd" d="M775.546 411.806C777.075 411.806 778.313 410.567 778.313 409.039C778.313 407.511 777.075 406.272 775.546 406.272C774.018 406.272 772.78 407.511 772.78 409.039C772.78 410.567 774.018 411.806 775.546 411.806Z" fill="#8D28E0"/>
<path fill-rule="evenodd" clip-rule="evenodd" d="M960.946 370.188C957.303 367.721 952.471 367.074 948.118 367.074C931.112 367.074 915.131 373.383 901.326 382.783C893.761 387.933 886.993 394.492 881.019 401.321C877.57 405.264 874.495 409.528 872.318 414.271C870.849 417.472 869.841 420.808 869.158 424.248C868.325 428.441 867.663 432.719 867.364 436.982C867.246 438.66 866.271 447.567 869.062 447.718C869.045 447.938 869.041 448.147 869.059 448.334C862.999 457.81 859.256 468.914 855.783 479.442C852.763 488.605 850.071 497.843 848.324 507.322C846.024 519.799 844.513 532.466 843.795 545.124C843.641 547.844 843.534 550.565 843.443 553.289C843.366 555.612 843.287 557.935 843.211 560.26C843.126 562.863 842.668 565.861 843.082 568.449C843.442 570.703 845.393 570.362 845.479 568.119C845.584 565.41 845.566 562.695 845.685 559.985C845.843 556.387 846.005 552.789 846.181 549.192C847.407 524.205 852.004 499.585 860.489 475.983C863.924 466.432 867.858 457.39 872.916 448.555C877.362 440.786 882.71 433.265 888.177 426.261C893.49 419.453 899.015 412.805 905.525 407.037C910.809 402.358 916.621 398.28 922.591 394.487C930.181 389.669 937.752 384.968 945.979 381.269C950.249 379.347 954.601 377.626 958.908 375.781C959.683 375.45 960.513 375.128 961.26 374.743C963.741 373.461 962.92 371.531 960.946 370.188Z" fill="#E9CEFF"/>
<path fill-rule="evenodd" clip-rule="evenodd" d="M892.543 457.46C899.439 457.46 905.575 458.356 911.928 461.096C917.413 463.462 922.407 466.593 927.267 470.002C934.091 474.797 939.468 480.377 943.23 487.771C945.481 492.188 947.131 498.438 945.619 503.256C943.839 508.93 938.951 513.663 932.523 512.664C928.549 512.046 924.897 509.413 921.876 506.934C918.259 503.969 915.365 500.404 912.974 496.445C909.075 489.986 906.784 482.685 903.472 475.936C901.9 472.733 900.381 469.507 898.498 466.463C897.567 464.956 896.574 463.463 895.161 462.342C894.404 461.743 891.215 460.706 892.434 459.36C874.553 459.595 858.711 473.329 855.277 490.331C854.958 491.916 854.708 493.513 854.443 495.108C854.277 496.114 854.345 499.827 853.445 500.47C851.46 501.888 852.294 497.579 852.38 496.958C852.6 495.354 852.834 493.752 853.08 492.152C854.421 483.451 858.295 475.362 864.754 469.157C872.14 462.062 882.106 457.46 892.543 457.46Z" fill="#BB88E4"/>
<path fill-rule="evenodd" clip-rule="evenodd" d="M305.198 487.652C322.413 516.535 342.463 544.5 354.503 576.079C354.018 572.357 353.503 568.638 352.927 564.926C349.873 545.243 346.075 525.704 342.085 506.189C340.054 496.253 337.904 486.352 335.7 476.453C334.515 471.136 333.344 465.816 332.134 460.505C331.84 459.217 331.589 456.97 331.223 454.693C342.924 493.094 354.208 531.525 362.462 570.849C363.545 576.01 364.467 581.162 365.222 586.304C365.48 585.131 365.735 583.958 366.012 582.788C369.353 568.762 374.362 554.849 380.327 541.734C383.179 535.463 386.454 529.329 390.31 523.612C392.715 520.049 398.387 515.814 400.58 512.165C388.583 534.173 384.25 561.709 377.323 585.634C375.632 591.473 373.931 597.302 372.263 603.141C382.71 582.188 398.919 564.973 421.456 557.513C394.176 575.538 377.814 607.106 366.788 639.392C366.752 639.775 366.709 640.157 366.671 640.541C369.916 634.383 374.003 628.812 379.541 624.912C391.398 616.559 404.548 618.992 416.049 626.157C407.023 620.419 390.711 625.644 383.117 631.476C377.68 635.65 373.034 641.25 369 646.715C368.033 648.025 366.713 649.553 365.32 651.183C363.367 663.865 360.183 676.461 355.675 688.956C356.42 685.369 355.882 679.634 356.088 676.96C356.111 676.671 356.129 676.381 356.151 676.093C355.466 678.828 354.804 681.533 354.167 684.194C355.434 679.116 356.122 673.815 356.659 668.459C356.798 666.158 356.933 663.856 357.075 661.555C357.03 657.186 356.85 652.801 356.546 648.408C355.468 644.14 354.26 640.113 353.263 636.764C349.669 624.681 344.398 613.106 337.912 602.307C331.994 592.453 324.91 583.526 316.733 575.454C312.323 571.102 307.71 566.959 303.161 562.758C301.516 561.239 298.576 557.505 296.033 555.558C314.552 565.769 333.613 576.814 347.123 593.266C345.538 587.183 343.818 581.187 341.999 575.311C332.766 545.497 321.109 514.599 305.198 487.652Z" fill="#D4A4FD"/>
<path fill-rule="evenodd" clip-rule="evenodd" d="M323.7 651.142C323.7 684.252 326.322 711.091 361.511 711.091C396.7 711.091 399.322 684.252 399.322 651.142" fill="#50078C"/>
<path d="M811.556 176.159C811.556 174.631 810.317 173.392 808.789 173.392C807.261 173.392 806.022 174.631 806.022 176.159V193.682C806.022 195.211 807.261 196.449 808.789 196.449C810.317 196.449 811.556 195.211 811.556 193.682V176.159Z" fill="#8726D7"/>
<path d="M824.467 161.402C824.467 159.874 823.228 158.635 821.7 158.635C820.172 158.635 818.933 159.874 818.933 161.402V193.682C818.933 195.211 820.172 196.449 821.7 196.449C823.228 196.449 824.467 195.211 824.467 193.682V161.402Z" fill="#8726D7"/>
<path d="M837.378 154.024C837.378 152.496 836.139 151.257 834.611 151.257C833.083 151.257 831.844 152.496 831.844 154.024V193.683C831.844 195.211 833.083 196.449 834.611 196.449C836.139 196.449 837.378 195.211 837.378 193.683V154.024Z" fill="#8726D7"/>
<path d="M850.289 161.402C850.289 159.874 849.05 158.635 847.522 158.635C845.994 158.635 844.756 159.874 844.756 161.402V193.682C844.756 195.211 845.994 196.449 847.522 196.449C849.05 196.449 850.289 195.211 850.289 193.682V161.402Z" fill="#8726D7"/>
<path d="M863.2 146.645C863.2 145.117 861.961 143.878 860.433 143.878C858.905 143.878 857.667 145.117 857.667 146.645V193.682C857.667 195.211 858.905 196.449 860.433 196.449C861.961 196.449 863.2 195.211 863.2 193.682V146.645Z" fill="#A12FFF"/>
<path fill-rule="evenodd" clip-rule="evenodd" d="M352.289 426.338C352.289 416.064 360.591 407.655 370.733 407.655V426.338L358.128 439.936C354.543 436.611 352.289 431.734 352.289 426.338Z" fill="#8D28E0"/>
<path fill-rule="evenodd" clip-rule="evenodd" d="M370.245 426.101H388.872C388.872 430.917 386.907 435.429 383.802 438.707C380.387 442.293 375.524 444.547 370.245 444.547C365.383 444.547 360.932 442.602 357.516 439.527L370.245 426.101Z" fill="#D6A4FF"/>
<path fill-rule="evenodd" clip-rule="evenodd" d="M389.178 426.101C389.178 415.958 380.876 407.655 370.733 407.655V426.101H389.178ZM361.511 407.655L368.889 424.257L352.289 416.878C353.93 412.575 357.617 409.297 361.511 407.655Z" fill="#A12FFF"/>
<path fill-rule="evenodd" clip-rule="evenodd" d="M938.106 421.331C939.884 419.448 942.392 418.264 945.177 418.262C950.544 418.257 954.901 422.589 954.906 427.937C954.911 433.286 950.562 437.625 945.194 437.63L945.21 455.615C960.473 455.601 972.958 443.136 972.944 427.921C972.931 412.706 960.424 400.263 945.161 400.277C937.147 400.284 929.91 403.672 924.972 409.055L938.106 421.331Z" fill="#E9CEFF"/>
<path fill-rule="evenodd" clip-rule="evenodd" d="M945.303 455.615L945.287 437.63C939.938 437.635 935.599 433.303 935.594 427.955L917.611 427.971C917.625 443.186 930.086 455.629 945.303 455.615Z" fill="#8726D7"/>
<path fill-rule="evenodd" clip-rule="evenodd" d="M935.963 427.954C935.961 424.812 937.443 422.018 939.738 420.212L928.418 405.826C921.838 410.986 917.603 418.979 917.611 427.971L935.963 427.954Z" fill="#D6A4FF"/>
<path fill-rule="evenodd" clip-rule="evenodd" d="M776.558 180.313C775.195 181.755 773.264 182.661 771.116 182.661C766.989 182.661 763.644 179.337 763.644 175.237C763.644 171.136 766.989 167.812 771.116 167.812V154.024C759.376 154.024 749.767 163.571 749.767 175.237C749.767 186.902 759.376 196.449 771.116 196.449C777.283 196.449 782.856 193.857 786.656 189.733L776.558 180.313Z" fill="#E9CEFF"/>
<path fill-rule="evenodd" clip-rule="evenodd" d="M770.978 154.024V167.812C775.078 167.812 778.402 171.136 778.402 175.237H792.189C792.189 163.571 782.642 154.024 770.978 154.024Z" fill="#8726D7"/>
<path fill-rule="evenodd" clip-rule="evenodd" d="M778.423 175.237C778.423 177.593 777.313 179.688 775.589 181.041L784.07 191.838C789.007 187.973 792.189 181.98 792.189 175.237H778.423Z" fill="#D6A4FF"/>
<path fill-rule="evenodd" clip-rule="evenodd" d="M440.829 196.436C440.825 196.446 440.821 196.455 440.816 196.466C440.821 196.457 440.829 196.42 440.829 196.436Z" fill="#A12FFF"/>
<path fill-rule="evenodd" clip-rule="evenodd" d="M440.82 196.45C440.82 196.452 440.819 196.455 440.819 196.459C440.819 196.45 440.834 196.423 440.82 196.45Z" fill="#A12FFF"/>
<path fill-rule="evenodd" clip-rule="evenodd" d="M440.884 196.294C440.871 196.331 440.854 196.366 440.84 196.403C440.847 196.385 440.854 196.37 440.862 196.352C440.67 196.831 440.792 196.519 440.884 196.294Z" fill="#A12FFF"/>
<path fill-rule="evenodd" clip-rule="evenodd" d="M440.842 196.406C440.835 196.423 440.828 196.441 440.82 196.458C440.767 196.561 440.842 196.406 440.842 196.406Z" fill="#A12FFF"/>
<path fill-rule="evenodd" clip-rule="evenodd" d="M440.813 196.464C440.802 196.486 440.864 196.38 440.813 196.464V196.464Z" fill="#A12FFF"/>
<path fill-rule="evenodd" clip-rule="evenodd" d="M440.82 196.451L440.823 196.448C440.822 196.449 440.822 196.451 440.82 196.451Z" fill="#A12FFF"/>
<path d="M480.478 148.49H400.244C398.207 148.49 396.556 150.142 396.556 152.179V202.905C396.556 204.943 398.207 206.595 400.244 206.595H480.478C482.515 206.595 484.167 204.943 484.167 202.905V152.179C484.167 150.142 482.515 148.49 480.478 148.49Z" fill="#50078C"/>
<path fill-rule="evenodd" clip-rule="evenodd" d="M429.756 165.091L403.933 206.595H455.578L429.756 165.091Z" fill="#8726D7"/>
<path fill-rule="evenodd" clip-rule="evenodd" d="M455.117 176.159L432.522 206.595H477.711L455.117 176.159Z" fill="#A12FFF"/>
<path fill-rule="evenodd" clip-rule="evenodd" d="M464.8 176.159C469.384 176.159 473.1 172.443 473.1 167.858C473.1 163.273 469.384 159.557 464.8 159.557C460.216 159.557 456.5 163.273 456.5 167.858C456.5 172.443 460.216 176.159 464.8 176.159Z" fill="#D6A4FF"/>
<path fill-rule="evenodd" clip-rule="evenodd" d="M880.716 590.257C880.719 590.267 880.723 590.276 880.729 590.287C880.723 590.277 880.716 590.241 880.716 590.257Z" fill="#A12FFF"/>
<path fill-rule="evenodd" clip-rule="evenodd" d="M880.724 590.271C880.724 590.273 880.726 590.276 880.726 590.28C880.726 590.271 880.71 590.244 880.724 590.271Z" fill="#A12FFF"/>
<path fill-rule="evenodd" clip-rule="evenodd" d="M880.66 590.115C880.673 590.152 880.69 590.187 880.705 590.224C880.697 590.206 880.69 590.191 880.683 590.173C880.874 590.652 880.753 590.34 880.66 590.115Z" fill="#A12FFF"/>
<path fill-rule="evenodd" clip-rule="evenodd" d="M880.702 590.227C880.709 590.244 880.717 590.262 880.724 590.279C880.778 590.382 880.702 590.227 880.702 590.227Z" fill="#A12FFF"/>
<path fill-rule="evenodd" clip-rule="evenodd" d="M880.731 590.285C880.68 590.201 880.742 590.307 880.731 590.285V590.285Z" fill="#A12FFF"/>
<path fill-rule="evenodd" clip-rule="evenodd" d="M880.723 590.271L880.72 590.268C880.722 590.27 880.722 590.271 880.723 590.271Z" fill="#A12FFF"/>
<path d="M818.933 519.253H942.511C944.548 519.253 946.2 520.905 946.2 522.943V602.26C946.2 604.298 944.548 605.949 942.511 605.949H818.933C816.896 605.949 815.244 604.298 815.244 602.26V522.943C815.244 520.905 816.896 519.253 818.933 519.253Z" fill="#50078C"/>
<path fill-rule="evenodd" clip-rule="evenodd" d="M897.575 544.155L935.438 605.949H859.713L897.575 544.155Z" fill="#8D28E0"/>
<path fill-rule="evenodd" clip-rule="evenodd" d="M858.537 560.707L892.009 605.949H825.065L858.537 560.707Z" fill="#A12FFF"/>
<path fill-rule="evenodd" clip-rule="evenodd" d="M844.294 560.757C837.418 560.757 831.844 555.182 831.844 548.306C831.844 541.429 837.418 535.855 844.294 535.855C851.171 535.855 856.744 541.429 856.744 548.306C856.744 555.182 851.171 560.757 844.294 560.757Z" fill="#D6A4FF"/>
<path fill-rule="evenodd" clip-rule="evenodd" d="M492.634 454.309C499.342 458.355 505.933 460.31 509.027 459.513C516.786 457.511 517.499 429.105 511.496 417.907C505.493 406.709 474.632 401.827 473.076 424.015C472.536 431.715 475.767 438.588 480.54 444.196L471.981 484.122H496.844L492.634 454.309Z" fill="#F4CBA5"/>
<path fill-rule="evenodd" clip-rule="evenodd" d="M462.236 416.629C461.433 415.833 460.995 414.696 460.616 413.617C460.223 412.496 459.84 411.363 459.579 410.195C459.057 407.864 459.052 405.182 460.715 403.371C462.047 401.92 464.047 401.268 465.894 401.126C467.124 401.032 468.387 401.204 469.566 401.592C470.735 401.977 471.744 402.744 472.878 403.22C472.921 400.707 473.352 398.077 474.625 395.932C475.851 393.867 477.806 392.709 480.031 392.402C482.316 392.088 484.572 392.623 486.617 393.73C487.129 394.006 487.637 394.297 488.122 394.626C488.529 394.901 488.951 395.233 489.428 395.345C489.96 395.469 490.223 395.162 490.569 394.774C490.974 394.319 491.43 393.918 491.913 393.563C494.049 391.991 496.852 391.346 499.326 392.287C500.466 392.721 501.575 393.458 502.348 394.473C503.038 395.379 503.53 396.815 504.481 397.445C504.885 397.713 505.17 397.358 505.538 397.096C506.091 396.702 506.617 396.267 507.176 395.884C507.961 395.346 508.811 394.943 509.721 394.732C511.054 394.424 512.896 394.496 513.277 396.243C513.42 396.899 513.311 397.601 513.264 398.262C513.201 399.169 513.135 400.077 513.055 400.984C512.996 401.672 512.921 402.337 512.791 403.013C512.721 403.372 512.505 404.044 512.659 404.405C512.852 404.856 513.742 404.6 514.122 404.616C514.874 404.646 515.628 404.778 516.323 405.099C516.861 405.349 517.428 405.715 517.654 406.332C517.795 406.711 517.758 407.101 517.691 407.491C517.612 407.96 517.703 408.208 517.762 408.681C518.771 408.184 522.267 407.079 522.707 408.889C522.854 409.491 522.52 410.171 522.266 410.68C521.819 411.572 521.234 412.386 520.636 413.163C519.388 414.784 517.899 416.182 516.296 417.377C518.174 418.213 518.664 420.677 517.037 422.146C516.32 422.794 515.354 422.939 514.449 422.897C514.118 422.882 513.64 422.754 513.379 422.812C513.239 422.843 513.088 422.962 512.894 422.976C511.616 423.063 510.173 422.755 508.924 422.471C506.698 421.966 504.59 420.91 502.869 419.302C502.428 418.89 502.063 418.653 501.469 418.658C500.948 418.664 500.437 418.807 499.917 418.82C498.54 418.855 497.299 418.182 496.021 417.733C495.943 419.462 495.451 421.365 494.745 422.919C494.169 424.188 492.967 424.372 491.784 424.483C488.004 424.839 484.211 424.441 480.427 424.447C484.09 425.276 487.876 425.617 491.507 426.592C493.148 427.033 491.895 428.141 491.193 428.908C490.038 430.171 489.178 431.738 488.582 433.387C486.79 431.049 483.623 429.508 480.816 430.227C477.716 431.02 475.532 435.216 477.515 438.234C478.666 439.986 480.744 440.662 482.474 441.414C481.125 442.818 480.799 444.891 479.986 446.638C479.586 447.5 479.023 448.474 478.128 448.774C477.796 448.885 477.408 448.895 477.146 449.165C476.822 449.5 476.746 449.875 476.331 450.162C474.681 451.311 472.103 451.222 470.64 449.723C469.317 448.367 469.661 446.223 470.766 444.849C469.007 444.115 465.802 443.171 466.501 440.429C462.691 440.176 453.437 433.99 458.552 429.47C455.745 427.881 453.166 424.001 454.969 420.581C456.358 417.946 459.587 416.77 462.236 416.629Z" fill="#191847"/>
<path fill-rule="evenodd" clip-rule="evenodd" d="M435.331 614.755H515.365L525.851 743.315H406.716L435.331 614.755Z" fill="#A180BB"/>
<path fill-rule="evenodd" clip-rule="evenodd" d="M435.331 614.755H459.946L474.679 743.315H406.716L435.331 614.755Z" fill="#714695"/>
<path fill-rule="evenodd" clip-rule="evenodd" d="M559.337 640.226C550.344 659.314 536.29 705.652 536.29 705.652L548.221 711.107C548.221 711.107 578.492 662.398 596.993 629.101C596.131 636.596 595.253 645.035 594.44 653.907C592.512 674.923 594.439 720.327 595.475 733.443C596.127 741.686 607.319 739.959 608.363 733.422C608.54 732.314 609.262 728.427 610.338 722.626C615.614 694.186 629.423 619.751 629.447 601.525C629.457 594.191 615.141 587.603 606.607 592.731C600.747 586.471 589.653 582.864 583.281 593.203C579.229 599.776 569.603 618.436 559.337 640.226Z" fill="#F4CBA5"/>
<path fill-rule="evenodd" clip-rule="evenodd" d="M537.143 688.497L578.092 591.415C587.902 575.622 615.406 594.629 612.06 603.788C604.466 624.583 565.839 691.907 563.576 698.102L537.143 688.497Z" fill="#8726D7"/>
<path fill-rule="evenodd" clip-rule="evenodd" d="M537.788 699.763C537.155 698.888 535.918 698.682 535.089 699.374C533.394 700.79 530.803 703.098 529.89 704.679C528.49 707.108 526.61 712.234 526.61 712.234C529.426 713.861 577.212 741.473 577.212 741.473C577.212 741.473 582.95 736.086 579 733.11C575.051 730.135 572.481 728.091 572.481 728.091L554.947 703.914C554.642 703.492 554.05 703.407 553.638 703.724L549.916 706.592C549.916 706.592 544.923 706.156 542.463 704.735C540.904 703.834 538.984 701.415 537.788 699.763Z" fill="#E4E4E4"/>
<path fill-rule="evenodd" clip-rule="evenodd" d="M595.501 726.922C594.515 726.481 593.34 726.922 592.969 727.935C592.208 730.01 591.117 733.305 591.117 735.131C591.117 737.936 592.05 743.315 592.05 743.315C595.301 743.315 650.48 743.315 650.48 743.315C650.48 743.315 652.758 735.78 647.851 735.179C642.944 734.579 639.699 734.094 639.699 734.094L612.434 721.93C611.959 721.718 611.404 721.94 611.206 722.421L609.416 726.768C609.416 726.768 604.873 728.889 602.032 728.889C600.232 728.889 597.362 727.754 595.501 726.922Z" fill="#E4E4E4"/>
<path fill-rule="evenodd" clip-rule="evenodd" d="M632.317 608.984C632.317 636.528 619.247 700.777 619.239 706.842L591.117 706.863C591.117 706.863 597.291 620.87 595.496 619.943C593.7 619.017 521.889 627.119 500.353 627.119C469.296 627.119 456.448 607.519 455.405 571.211H516.928C529.454 572.552 594.794 585.742 619.059 590.276C629.447 592.216 632.317 601.396 632.317 608.984Z" fill="#A12FFF"/>
<path fill-rule="evenodd" clip-rule="evenodd" d="M548.362 583.926C528.687 624.933 445.866 597.245 445.866 597.245C445.866 590.138 448.682 583.015 451.64 575.533C454.81 567.511 458.145 559.077 458.344 549.813C458.711 532.769 461.896 481.128 475.185 463.684C475.428 462.896 475.673 462.106 475.922 461.313L476.842 461.746C476.985 461.598 477.13 461.454 477.276 461.313L506.273 465.8C506.273 478.926 514.666 491.372 522.222 502.577C524.06 505.303 525.849 507.955 527.456 510.527C529.559 513.894 531.934 517.322 534.367 520.835C546.689 538.624 560.518 558.588 548.362 583.926Z" fill="#C1DEE2"/>
<path fill-rule="evenodd" clip-rule="evenodd" d="M511.205 576.175C513.145 566.159 514.403 559.472 514.98 556.115C530.428 573.586 539.352 582.422 541.753 582.624C546.269 583.006 549.605 578.999 550.556 580.125C552.125 584.791 547.69 596.469 539.213 598.167C535.166 598.979 528.901 590.624 526.32 587.664C525.305 586.499 520.267 582.67 511.205 576.175ZM537.891 522.776C541.895 522.776 544.046 524.432 546.414 527.775C548.781 531.118 551.022 546.884 547.221 546.884C543.419 546.884 527.492 540.789 527.492 536.692C527.492 532.594 538.359 530.86 538.359 527.775C538.359 524.69 533.886 522.776 537.891 522.776Z" fill="#F4CBA5"/>
<path fill-rule="evenodd" clip-rule="evenodd" d="M470.495 480.72C460.324 523.157 464.467 558.949 503.12 591.415C502.666 593.046 502.393 594.02 502.393 594.02C457.023 562.285 457.001 523.827 470.495 480.72Z" fill="black" fill-opacity="0.2"/>
<path fill-rule="evenodd" clip-rule="evenodd" d="M784.648 388.887C777.93 392.936 771.328 394.893 768.23 394.094C760.459 392.092 759.745 363.664 765.757 352.457C771.769 341.249 802.676 336.365 804.234 358.57C804.774 366.276 801.539 373.154 796.759 378.765L805.331 418.723H780.431L784.648 388.887Z" fill="#F4CBA5"/>
<path fill-rule="evenodd" clip-rule="evenodd" d="M779.949 339.54C783.231 339.001 792.067 338.632 793.697 338.632C794.738 338.632 795.867 338.87 796.484 337.914C796.988 337.13 796.804 335.807 796.954 334.897C797.129 333.842 797.378 332.8 797.629 331.761C798.345 328.803 799.427 325.989 800.941 323.347C803.782 318.391 807.944 314.508 813.198 312.249C819.001 309.754 825.566 309.184 831.807 309.689C838.485 310.23 844.531 312.436 850.838 314.511C856.847 316.488 863.14 317.266 869.425 316.301C875.758 315.328 880.542 311.895 885.883 308.638C891.351 305.303 897.6 303.121 904.064 303.623C910.098 304.091 915.659 306.583 920.648 309.911C925.321 313.025 929.167 316.772 931.343 322.045C933.686 327.717 933.676 333.944 929.831 338.957C924.26 346.223 913.905 348.103 905.293 347.915C900.311 347.808 895.419 346.898 890.715 345.244C884.443 343.037 879.023 339.298 873.155 336.264C870.402 334.84 867.555 333.671 864.571 332.829C861.676 332.011 858.824 331.636 856.203 333.385C853.43 335.236 850.945 337.054 847.772 338.212C844.729 339.322 841.506 339.944 838.263 339.919C831.954 339.87 825.736 337.905 819.608 336.588C814.612 335.514 809.266 334.444 804.171 335.476C802.046 335.907 798.941 336.796 798.173 339.006C811.094 341.348 816.169 357.329 812.527 369.061C810.561 375.393 798.742 382.796 794.148 379.467C791.236 377.358 793.004 374.589 794.148 372.761C796.338 369.261 797.088 364.765 793.035 362.328C789.538 360.226 785.863 365.218 785.792 365.212C784.832 365.137 776.529 360.44 770.809 353.588C765.165 353.922 764.309 350.201 765.657 347.157C767.004 344.115 775.415 340.284 779.949 339.54Z" fill="#191847"/>
<path fill-rule="evenodd" clip-rule="evenodd" d="M821.896 506.341L782.912 634.049L764.028 742.655H749.221L769.176 506.341H821.896Z" fill="#DDB692"/>
<path fill-rule="evenodd" clip-rule="evenodd" d="M835.843 506.341C833.196 576.46 836.312 612.628 836.904 618.998C837.497 625.368 845.611 666.675 864.823 744.794L849.045 739.364C818.683 667.718 808.337 630.482 804.855 621.074C801.372 611.667 792.123 573.422 777.109 506.341H835.843Z" fill="#F4CBA5"/>
<path fill-rule="evenodd" clip-rule="evenodd" d="M862.057 738.025C863.044 737.584 864.22 738.024 864.592 739.04C865.352 741.118 866.444 744.416 866.444 746.245C866.444 749.052 865.509 754.439 865.509 754.439C862.258 754.439 807.079 754.439 807.079 754.439C807.079 754.439 804.802 746.894 809.709 746.293C814.616 745.691 817.862 745.206 817.862 745.206L845.125 733.027C845.6 732.815 846.156 733.037 846.355 733.518L848.145 737.87C848.145 737.87 852.688 739.994 855.527 739.994C857.327 739.994 860.197 738.858 862.057 738.025Z" fill="#E4E4E4"/>
<path fill-rule="evenodd" clip-rule="evenodd" d="M764.677 738.025C765.664 737.584 766.84 738.024 767.211 739.04C767.971 741.118 769.062 744.416 769.062 746.245C769.062 749.052 768.129 754.439 768.129 754.439C764.878 754.439 709.699 754.439 709.699 754.439C709.699 754.439 707.421 746.894 712.328 746.293C717.235 745.691 720.481 745.206 720.481 745.206L747.745 733.027C748.22 732.815 748.776 733.037 748.974 733.518L750.764 737.87C750.764 737.87 755.306 739.994 758.147 739.994C759.947 739.994 762.816 738.858 764.677 738.025Z" fill="#E4E4E4"/>
<path fill-rule="evenodd" clip-rule="evenodd" d="M827.077 506.341L810.501 571.406H759.873L767.422 506.341H827.077Z" fill="#69A1AC"/>
<path fill-rule="evenodd" clip-rule="evenodd" d="M836.4 506.341C844.581 530.913 839.508 571.406 839.508 571.406H787.844L773.638 506.341H836.4Z" fill="#89C5CC"/>
<path fill-rule="evenodd" clip-rule="evenodd" d="M892.773 539.068C888.905 533.393 862.835 457.031 862.835 457.031L840.349 460.277C840.349 460.277 877.733 539.795 879.869 543.493C882.644 548.297 880.186 556.19 878.521 561.542C878.263 562.369 878.024 563.136 877.826 563.822C881.324 564.829 882.654 562.83 884.057 560.723C885.642 558.343 887.319 555.824 892.314 557.343C894.243 557.93 896.097 558.683 897.908 559.419C904.163 561.963 909.911 564.299 916.514 558.831C917.56 557.964 918.443 555.13 915.116 553.479C906.83 549.367 894.663 541.841 892.773 539.068ZM698.999 535.122L724.12 502.687L736.133 518.026L708.372 540.092C702.46 553.092 698.728 558.875 697.175 557.44C695.866 556.23 696.167 554.66 696.445 553.214C696.661 552.088 696.863 551.036 696.278 550.289C694.941 548.582 689.014 550.5 683.468 552.56C677.922 554.621 678.851 551.628 679.862 549.993C684.659 544.875 691.038 539.917 698.999 535.122Z" fill="#F4CBA5"/>
<path fill-rule="evenodd" clip-rule="evenodd" d="M785.328 402.955L776.23 402.682C769.175 454.037 701.999 497.808 700.18 516.89C699.512 523.889 704.874 526.625 702.643 529.042L715.376 535.857C717.011 533.305 721.77 536.885 730.075 532.746C738.38 528.606 793.545 461.434 785.328 402.955Z" fill="#8726D7"/>
<path fill-rule="evenodd" clip-rule="evenodd" d="M800.13 390.327C802.123 389.904 804.082 391.177 804.506 393.17L805.865 399.562C824.39 410.057 871.223 442.614 892.062 512.547C894.251 519.893 892.765 524.202 891.578 527.644C890.765 530 890.092 531.95 890.832 534.189L876.304 540.477C876.066 538.78 873.98 537.757 871.288 536.438C867.375 534.518 862.182 531.972 859.529 525.813C857.014 519.975 853.514 512.734 849.422 504.706C850.717 515.917 850.039 526.491 846.611 535.651C838.06 558.504 768.128 544.588 758.12 523.907C752.78 512.871 756.689 502.426 761.86 488.613C768.423 471.077 777.018 448.114 771.306 411.621L768.987 400.715C768.562 398.723 769.834 396.764 771.827 396.341L800.13 390.327Z" fill="#A12FFF"/>
</svg>
